<svg width="20" height="20" viewBox="0 0 20 20" fill="none" xmlns="http://www.w3.org/2000/svg">
<path d="M10 0C4.50391 0 0 4.50391 0 10C0 15.4961 4.50391 20 10 20C15.4961 20 20 15.4961 20 10C20 4.50391 15.4961 0 10 0Z" fill="#A0952F"/>
<path d="M10 17.0312C9.35277 17.0312 8.82812 16.5066 8.82812 15.8594C8.82812 15.2121 9.35277 14.6875 10 14.6875C10.6472 14.6875 11.1719 15.2121 11.1719 15.8594C11.1719 16.5066 10.6472 17.0312 10 17.0312ZM12.0765 9.32023C11.7389 9.56855 11.1719 10.0984 11.1719 10.8634V11.1719C11.1719 11.819 10.6471 12.3438 10 12.3438C9.35285 12.3438 8.82812 11.819 8.82812 11.1719V10.8634C8.82812 9.55023 9.50676 8.29883 10.6901 7.43078C10.9962 7.20594 11.1719 6.86145 11.1719 6.48438C11.1719 5.83836 10.646 5.3125 10 5.3125C9.35398 5.3125 8.82812 5.83836 8.82812 6.48438C8.82812 7.13152 8.3034 7.65625 7.65625 7.65625C7.0091 7.65625 6.48438 7.13152 6.48438 6.48438C6.48438 4.54574 8.06137 2.96875 10 2.96875C11.9386 2.96875 13.5156 4.54574 13.5156 6.48438C13.5156 7.59902 12.9777 8.65934 12.0765 9.32023Z" fill="black"/>
</svg>
