<svg width="14" height="23" viewBox="0 0 14 23" fill="none" xmlns="http://www.w3.org/2000/svg">
<path d="M6.79903 22.833C6.67731 22.6746 6.66017 22.4476 6.75831 22.2699C6.8736 22.0598 7.00003 21.7276 7.00003 21.2819C7.00003 21.0404 6.8286 20.799 6.65717 20.5575C6.44288 20.2195 6.14288 19.7366 6.14288 19.1571C6.14288 18.7708 6.2286 18.4328 6.35717 18.0947C6.44417 17.8663 6.51146 17.6374 6.54574 17.3641C6.5766 17.1217 6.75146 16.9358 6.96874 16.9358H6.96917C7.23488 16.9358 7.43074 17.2076 7.38831 17.5037C7.33217 17.8938 7.23146 18.1986 7.17188 18.4328C7.08617 18.6742 7.00046 18.9157 7.00046 19.1571C7.00046 19.4469 7.17188 19.6883 7.34331 19.978C7.60003 20.3161 7.85717 20.7507 7.85717 21.2819C7.85717 21.9454 7.6656 22.4471 7.47874 22.7798C7.3266 23.0508 6.98503 23.0754 6.79903 22.833H6.79903Z" fill="black"/>
<path d="M7.81971 17H6.18006C6.05449 17 5.96742 16.9128 6.01167 16.831L6.46035 16H7.53978L7.98846 16.831C8.03235 16.9128 7.94564 17 7.81971 17H7.81971Z" fill="black" stroke="black" stroke-width="1"/>
<path d="M7 15.97C3.60014 15.97 1 10.7049 1 7.29752C1 3.83898 3.7 1 7 1C10.3 1 13 3.83898 13 7.29752C13 10.7049 10.3999 15.97 7 15.97Z" fill="black" stroke="black" stroke-width="1"/>
</svg>
