<svg width="20" height="20" viewBox="0 0 20 20" fill="none" xmlns="http://www.w3.org/2000/svg">
<path d="M9.99965 20C15.5207 20 19.9965 15.5228 19.9965 10C19.9965 4.47715 15.5207 0 9.99965 0C4.47857 0 0.00285339 4.47715 0.00285339 10C0.00285339 15.5228 4.47857 20 9.99965 20Z" fill="#FF0031"/>
<path d="M14.5362 7.13945L12.8296 5.43292C12.7458 5.34906 12.6098 5.34906 12.5259 5.43292L10.1378 7.82109C10.0539 7.90495 9.91793 7.90495 9.83407 7.82109L7.4459 5.43292C7.36204 5.34906 7.22607 5.34906 7.14221 5.43292L5.43568 7.13945C5.35182 7.2233 5.35182 7.35928 5.43568 7.44314L7.82385 9.83131C7.90771 9.91517 7.90771 10.0511 7.82385 10.135L5.43568 12.5232C5.35182 12.607 5.35182 12.743 5.43568 12.8269L7.14221 14.5334C7.22607 14.6172 7.36204 14.6172 7.4459 14.5334L9.83407 12.1452C9.91793 12.0614 10.0539 12.0614 10.1378 12.1452L12.5259 14.5334C12.6098 14.6172 12.7458 14.6172 12.8296 14.5334L14.5362 12.8269C14.62 12.743 14.62 12.607 14.5362 12.5232L12.148 10.135C12.0641 10.0511 12.0641 9.91517 12.148 9.83131L14.5362 7.44314C14.62 7.35928 14.62 7.22334 14.5362 7.13945V7.13945Z" fill="#FFF5F5"/>
</svg>
