<?xml version="1.0" encoding="UTF-8" standalone="no"?>
<svg
   version="1.1"
   id="svg36"
   width="1318.4122"
   height="170.28006"
   viewBox="0 0 1318.4122 170.28006"
   sodipodi:docname="titulo-icpc.svg"
   inkscape:version="1.1 (c4e8f9ed74, 2021-05-24)"
   inkscape:export-filename="/home/leonardo/Dropbox/Documents/Divulgacao/Maratona2020/logonovo-horizontal-branco-1afase.png"
   inkscape:export-xdpi="37.689632"
   inkscape:export-ydpi="37.689632"
   xmlns:inkscape="http://www.inkscape.org/namespaces/inkscape"
   xmlns:sodipodi="http://sodipodi.sourceforge.net/DTD/sodipodi-0.dtd"
   xmlns:xlink="http://www.w3.org/1999/xlink"
   xmlns="http://www.w3.org/2000/svg"
   xmlns:svg="http://www.w3.org/2000/svg"
   xmlns:rdf="http://www.w3.org/1999/02/22-rdf-syntax-ns#"
   xmlns:cc="http://creativecommons.org/ns#"
   xmlns:dc="http://purl.org/dc/elements/1.1/">
  <metadata
     id="metadata42">
    <rdf:RDF>
      <cc:Work
         rdf:about="">
        <dc:format>image/svg+xml</dc:format>
        <dc:type
           rdf:resource="http://purl.org/dc/dcmitype/StillImage" />
      </cc:Work>
    </rdf:RDF>
  </metadata>
  <defs
     id="defs40">
    <clipPath
       clipPathUnits="userSpaceOnUse"
       id="clipPath93">
      <rect
         style="fill:#1a1a1a;stroke:#ffffff;stroke-width:2"
         id="rect95"
         width="735.56781"
         height="509.89124"
         x="-47.989845"
         y="-81.880814"
         clip-path="none" />
    </clipPath>
    <clipPath
       clipPathUnits="userSpaceOnUse"
       id="clipPath99">
      <rect
         style="fill:#1a1a1a;stroke:#ffffff;stroke-width:2"
         id="rect101"
         width="720.38403"
         height="455.3497"
         x="-26.168011"
         y="-44.331089" />
    </clipPath>
    <clipPath
       clipPathUnits="userSpaceOnUse"
       id="clipPath130">
      <rect
         style="fill:#1a1a1a;stroke:#ffffff;stroke-width:2"
         id="rect132"
         width="640.40228"
         height="151.45563"
         x="686.02441"
         y="410.77087" />
    </clipPath>
    <clipPath
       clipPathUnits="userSpaceOnUse"
       id="clipPath130-3">
      <rect
         style="fill:#1a1a1a;stroke:#ffffff;stroke-width:2"
         id="rect132-6"
         width="640.40228"
         height="151.45563"
         x="686.02441"
         y="410.77087" />
    </clipPath>
    <clipPath
       clipPathUnits="userSpaceOnUse"
       id="clipPath43">
      <rect
         style="fill:#1a1a1a;stroke:#ffffff;stroke-width:2"
         id="rect45"
         width="669.32666"
         height="113.17222"
         x="683.63568"
         y="489.50595" />
    </clipPath>
    <rect
       id="SVGID_1_"
       width="576"
       height="108"
       x="0"
       y="0" />
    <defs
       id="defs1215">
      <rect
         id="rect2082"
         width="576"
         height="108"
         x="0"
         y="0" />
    </defs>
    <clipPath
       id="SVGID_2_">
      <use
         xlink:href="#SVGID_1_"
         id="use1217"
         x="0"
         y="0"
         width="100%"
         height="100%" />
    </clipPath>
  </defs>
  <sodipodi:namedview
     pagecolor="#000000"
     bordercolor="#666666"
     borderopacity="1"
     objecttolerance="10"
     gridtolerance="10"
     guidetolerance="10"
     inkscape:pageopacity="0"
     inkscape:pageshadow="2"
     inkscape:window-width="1920"
     inkscape:window-height="1012"
     id="namedview38"
     showgrid="false"
     inkscape:zoom="0.5"
     inkscape:cx="59"
     inkscape:cy="81"
     inkscape:window-x="1280"
     inkscape:window-y="38"
     inkscape:window-maximized="1"
     inkscape:current-layer="g44"
     inkscape:document-rotation="0"
     fit-margin-top="10"
     fit-margin-left="18"
     fit-margin-right="18"
     fit-margin-bottom="10"
     inkscape:pagecheckerboard="true" />
  <g
     inkscape:groupmode="layer"
     inkscape:label="Image"
     id="g44"
     transform="translate(-197.85759,-213.25996)">
    <g
       id="g1406"
       style="fill:#ffffff"
       transform="matrix(2.1392339,0,0,2.1392339,1090.9204,168.75399)" />
    <g
       id="g1318"
       style="fill:#ffffff"
       transform="matrix(2.2730523,0,0,2.2730523,164.05435,161.71007)">
      <g
         id="g1228"
         style="fill:#ffffff">
        <path
           style="fill:#ffffff"
           d="m 189.341,42.619 c -0.747,0 -1.443,-0.09 -2.088,-0.271 -0.645,-0.181 -1.194,-0.43 -1.646,-0.746 -0.453,-0.317 -0.809,-0.69 -1.069,-1.121 -0.261,-0.43 -0.391,-0.904 -0.391,-1.426 0,-0.543 0.136,-1.046 0.407,-1.51 0.271,-0.464 0.639,-0.871 1.104,-1.223 0.463,-0.351 1.012,-0.622 1.646,-0.814 0.633,-0.192 1.312,-0.289 2.037,-0.289 0.724,0 1.397,0.097 2.02,0.289 0.623,0.192 1.166,0.464 1.63,0.814 0.463,0.352 0.832,0.759 1.103,1.223 0.271,0.464 0.407,0.967 0.407,1.51 0,0.521 -0.13,0.996 -0.39,1.426 -0.261,0.431 -0.617,0.804 -1.069,1.121 -0.453,0.316 -0.996,0.565 -1.629,0.746 -0.635,0.181 -1.326,0.271 -2.072,0.271 z m -3.056,6.009 h 6.246 v 34.388 h -6.246 z m 0,0 h 6.246 v 34.388 h -6.246 z"
           id="path1220" />
        <path
           style="fill:#ffffff"
           d="m 228.929,60.102 h -5.941 c -0.362,-2.136 -1.188,-3.915 -2.478,-5.336 -1.29,-1.421 -3.361,-2.132 -6.212,-2.132 -3.893,0 -6.677,1.812 -8.351,5.438 -1.086,2.334 -1.629,5.224 -1.629,8.667 0,3.468 0.769,6.386 2.309,8.753 1.539,2.368 3.96,3.552 7.264,3.552 2.535,0 4.543,-0.735 6.025,-2.207 1.482,-1.471 2.506,-3.484 3.072,-6.042 h 5.941 c -0.679,4.571 -2.376,7.915 -5.092,10.031 -2.716,2.116 -6.19,3.174 -10.422,3.174 -4.752,0 -8.543,-1.646 -11.372,-4.939 -2.829,-3.292 -4.243,-7.417 -4.243,-12.373 0,-6.064 1.55,-10.783 4.65,-14.155 3.1,-3.372 7.049,-5.059 11.848,-5.059 4.096,0 7.428,0.945 9.997,2.835 2.568,1.889 4.113,5.154 4.634,9.793 z"
           id="path1222" />
        <path
           style="fill:#ffffff"
           d="m 233.959,48.628 h 5.94 v 4.583 c 1.222,-1.562 2.557,-2.772 4.006,-3.633 2.059,-1.29 4.48,-1.935 7.264,-1.935 4.119,0 7.615,1.499 10.49,4.498 2.874,2.999 4.311,7.281 4.311,12.849 0,7.514 -2.071,12.889 -6.212,16.124 -2.625,2.037 -5.681,3.056 -9.166,3.056 -2.738,0 -5.036,-0.566 -6.891,-1.697 -1.086,-0.656 -2.297,-1.766 -3.632,-3.327 v 17.652 h -6.11 z m 25.765,16.905 c 0,-2.738 -0.419,-5.103 -1.256,-7.095 -1.584,-3.802 -4.481,-5.703 -8.69,-5.703 -4.232,0 -7.129,2.015 -8.69,6.043 -0.837,2.15 -1.256,4.877 -1.256,8.181 0,2.671 0.418,4.934 1.256,6.789 1.584,3.576 4.481,5.363 8.69,5.363 2.852,0 5.222,-1.131 7.112,-3.395 1.889,-2.262 2.834,-5.656 2.834,-10.183 z"
           id="path1224" />
        <path
           style="fill:#ffffff"
           d="m 300.728,60.102 h -5.941 c -0.362,-2.136 -1.188,-3.915 -2.478,-5.336 -1.29,-1.421 -3.361,-2.132 -6.212,-2.132 -3.893,0 -6.677,1.812 -8.351,5.438 -1.086,2.334 -1.629,5.224 -1.629,8.667 0,3.468 0.769,6.386 2.309,8.753 1.539,2.368 3.96,3.552 7.264,3.552 2.535,0 4.543,-0.735 6.025,-2.207 1.482,-1.471 2.506,-3.484 3.072,-6.042 h 5.941 c -0.679,4.571 -2.376,7.915 -5.092,10.031 -2.716,2.116 -6.191,3.174 -10.422,3.174 -4.752,0 -8.543,-1.646 -11.372,-4.939 -2.829,-3.292 -4.243,-7.417 -4.243,-12.373 0,-6.064 1.55,-10.783 4.65,-14.155 3.1,-3.372 7.049,-5.059 11.848,-5.059 4.096,0 7.428,0.945 9.997,2.835 2.568,1.889 4.113,5.154 4.634,9.793 z"
           id="path1226" />
      </g>
      <g
         id="g1316"
         style="fill:#ffffff">
        <g
           id="g1276"
           style="fill:#ffffff">
          <path
             style="fill:#ffffff"
             d="m 312.399,45.176 c -0.263,0 -0.508,-0.032 -0.735,-0.096 -0.228,-0.063 -0.421,-0.151 -0.58,-0.263 -0.16,-0.112 -0.285,-0.243 -0.376,-0.396 -0.092,-0.151 -0.138,-0.318 -0.138,-0.502 0,-0.191 0.048,-0.368 0.144,-0.532 0.096,-0.163 0.225,-0.307 0.389,-0.431 0.163,-0.123 0.356,-0.219 0.58,-0.287 0.223,-0.067 0.462,-0.102 0.717,-0.102 0.255,0 0.492,0.034 0.711,0.102 0.219,0.068 0.411,0.164 0.574,0.287 0.163,0.124 0.293,0.268 0.389,0.431 0.096,0.164 0.144,0.341 0.144,0.532 0,0.184 -0.046,0.351 -0.138,0.502 -0.092,0.152 -0.217,0.283 -0.377,0.396 -0.159,0.111 -0.351,0.199 -0.574,0.263 -0.223,0.064 -0.467,0.096 -0.73,0.096 z m -1.077,2.116 h 2.2 v 12.114 h -2.2 z m 0,0 h 2.2 v 12.114 h -2.2 z"
             id="path1230" />
          <path
             style="fill:#ffffff"
             d="m 316.751,47.244 h 2.045 v 1.723 c 0.606,-0.71 1.249,-1.22 1.928,-1.531 0.679,-0.311 1.433,-0.466 2.264,-0.466 1.82,0 3.05,0.602 3.688,1.806 0.351,0.653 0.527,1.595 0.527,2.822 v 7.809 h -2.2 v -7.665 c 0,-0.742 -0.116,-1.34 -0.347,-1.794 -0.382,-0.758 -1.076,-1.136 -2.081,-1.136 -0.51,0 -0.929,0.048 -1.256,0.143 -0.59,0.168 -1.108,0.503 -1.554,1.005 -0.359,0.398 -0.592,0.812 -0.7,1.237 -0.108,0.427 -0.162,1.039 -0.162,1.836 v 6.374 h -2.152 z"
             id="path1232" />
          <path
             style="fill:#ffffff"
             d="m 330.707,43.849 h 2.177 v 3.396 h 2.045 v 1.675 h -2.045 v 7.932 c 0,0.422 0.151,0.708 0.454,0.859 0.167,0.08 0.447,0.12 0.837,0.12 0.104,0 0.215,-0.002 0.335,-0.006 0.119,-0.004 0.259,-0.015 0.418,-0.03 v 1.612 c -0.248,0.072 -0.504,0.122 -0.771,0.149 -0.267,0.028 -0.556,0.042 -0.867,0.042 -1.005,0 -1.687,-0.243 -2.045,-0.729 -0.359,-0.486 -0.539,-1.119 -0.539,-1.899 v -8.051 h -1.734 v -1.675 h 1.734 v -3.395 z"
             id="path1234" />
          <path
             style="fill:#ffffff"
             d="m 346.754,49.146 c 0.431,0.614 0.718,1.332 0.861,2.153 0.127,0.558 0.191,1.45 0.191,2.679 h -9.387 c 0.04,1.235 0.347,2.226 0.921,2.972 0.574,0.745 1.463,1.118 2.667,1.118 1.125,0 2.021,-0.352 2.691,-1.053 0.383,-0.414 0.653,-0.889 0.813,-1.423 h 2.117 c -0.056,0.446 -0.241,0.944 -0.556,1.494 -0.315,0.551 -0.667,0.997 -1.058,1.34 -0.654,0.605 -1.463,1.017 -2.428,1.231 -0.518,0.12 -1.104,0.18 -1.758,0.18 -1.595,0 -2.946,-0.55 -4.054,-1.65 -1.108,-1.101 -1.663,-2.643 -1.663,-4.628 0,-1.953 0.558,-3.54 1.674,-4.76 1.116,-1.22 2.575,-1.829 4.377,-1.829 0.909,0 1.79,0.201 2.643,0.604 0.853,0.403 1.502,0.926 1.949,1.572 z m -1.16,3.205 c -0.088,-0.885 -0.292,-1.594 -0.61,-2.129 -0.59,-0.98 -1.575,-1.471 -2.954,-1.471 -0.988,0 -1.817,0.339 -2.487,1.017 -0.669,0.678 -1.024,1.539 -1.064,2.583 z"
             id="path1236" />
          <path
             style="fill:#ffffff"
             d="m 350.46,47.244 h 2.045 v 2.093 c 0.167,-0.406 0.578,-0.902 1.232,-1.488 0.653,-0.586 1.407,-0.879 2.26,-0.879 0.04,0 0.107,0.004 0.203,0.012 0.096,0.008 0.259,0.023 0.49,0.048 v 2.152 c -0.127,-0.023 -0.245,-0.04 -0.353,-0.048 -0.108,-0.008 -0.226,-0.012 -0.353,-0.012 -1.084,0 -1.917,0.333 -2.5,0.998 -0.582,0.666 -0.873,1.43 -0.873,2.29 v 6.996 h -2.153 V 47.244 Z"
             id="path1238" />
          <path
             style="fill:#ffffff"
             d="m 358.61,47.244 h 2.045 v 1.723 c 0.606,-0.71 1.249,-1.22 1.928,-1.531 0.679,-0.311 1.433,-0.466 2.264,-0.466 1.82,0 3.05,0.602 3.688,1.806 0.351,0.653 0.527,1.595 0.527,2.822 v 7.809 h -2.2 v -7.665 c 0,-0.742 -0.116,-1.34 -0.347,-1.794 -0.382,-0.758 -1.076,-1.136 -2.081,-1.136 -0.51,0 -0.929,0.048 -1.256,0.143 -0.59,0.168 -1.108,0.503 -1.554,1.005 -0.359,0.398 -0.592,0.812 -0.7,1.237 -0.108,0.427 -0.162,1.039 -0.162,1.836 v 6.374 h -2.152 z"
             id="path1240" />
          <path
             style="fill:#ffffff"
             d="m 379.031,52.028 c 0.494,-0.056 0.825,-0.252 0.992,-0.586 0.096,-0.184 0.144,-0.443 0.144,-0.777 0,-0.702 -0.261,-1.21 -0.783,-1.525 -0.522,-0.314 -1.27,-0.472 -2.242,-0.472 -1.124,0 -1.921,0.286 -2.392,0.86 -0.263,0.319 -0.435,0.794 -0.514,1.423 h -2.009 c 0.04,-1.498 0.552,-2.541 1.537,-3.127 0.985,-0.586 2.127,-0.879 3.426,-0.879 1.507,0 2.73,0.271 3.671,0.813 0.933,0.55 1.399,1.399 1.399,2.547 v 7.008 c 0,0.215 0.046,0.387 0.138,0.515 0.091,0.127 0.285,0.191 0.58,0.191 0.095,0 0.203,-0.007 0.323,-0.019 0.12,-0.012 0.247,-0.029 0.383,-0.054 v 1.519 c -0.335,0.088 -0.59,0.144 -0.766,0.168 -0.175,0.023 -0.415,0.035 -0.717,0.035 -0.742,0 -1.28,-0.251 -1.615,-0.753 -0.175,-0.263 -0.299,-0.638 -0.371,-1.124 -0.438,0.55 -1.068,1.024 -1.889,1.423 -0.821,0.398 -1.726,0.598 -2.715,0.598 -1.188,0 -2.158,-0.343 -2.912,-1.028 -0.754,-0.685 -1.13,-1.542 -1.13,-2.571 0,-1.124 0.371,-1.997 1.112,-2.618 0.741,-0.622 1.714,-1.005 2.918,-1.148 z m -2.918,6.051 c 0.757,0 1.491,-0.168 2.2,-0.503 1.196,-0.55 1.794,-1.454 1.794,-2.714 v -1.65 c -0.263,0.159 -0.602,0.293 -1.017,0.4 -0.415,0.107 -0.821,0.186 -1.22,0.233 L 376.566,54 c -0.781,0.096 -1.367,0.251 -1.758,0.467 -0.662,0.351 -0.992,0.917 -0.992,1.697 0,0.591 0.227,1.057 0.682,1.399 0.455,0.344 0.993,0.516 1.615,0.516 z"
             id="path1242" />
          <path
             style="fill:#ffffff"
             d="m 386.019,43.849 h 2.177 v 3.396 h 2.045 v 1.675 h -2.045 v 7.932 c 0,0.422 0.151,0.708 0.454,0.859 0.167,0.08 0.447,0.12 0.837,0.12 0.104,0 0.215,-0.002 0.335,-0.006 0.119,-0.004 0.259,-0.015 0.418,-0.03 v 1.612 c -0.248,0.072 -0.504,0.122 -0.771,0.149 -0.267,0.028 -0.556,0.042 -0.867,0.042 -1.005,0 -1.687,-0.243 -2.045,-0.729 -0.359,-0.486 -0.539,-1.119 -0.539,-1.899 v -8.051 h -1.734 v -1.675 h 1.734 v -3.395 z"
             id="path1244" />
          <path
             style="fill:#ffffff"
             d="m 393.386,45.176 c -0.263,0 -0.508,-0.032 -0.735,-0.096 -0.228,-0.063 -0.421,-0.151 -0.58,-0.263 -0.16,-0.112 -0.285,-0.243 -0.376,-0.396 -0.092,-0.151 -0.138,-0.318 -0.138,-0.502 0,-0.191 0.048,-0.368 0.144,-0.532 0.096,-0.163 0.225,-0.307 0.389,-0.431 0.163,-0.123 0.356,-0.219 0.58,-0.287 0.223,-0.067 0.462,-0.102 0.717,-0.102 0.255,0 0.492,0.034 0.711,0.102 0.219,0.068 0.411,0.164 0.574,0.287 0.163,0.124 0.293,0.268 0.389,0.431 0.096,0.164 0.144,0.341 0.144,0.532 0,0.184 -0.046,0.351 -0.138,0.502 -0.092,0.152 -0.217,0.283 -0.377,0.396 -0.159,0.111 -0.351,0.199 -0.574,0.263 -0.223,0.064 -0.466,0.096 -0.73,0.096 z m -1.076,2.116 h 2.2 v 12.114 h -2.2 z m 0,0 h 2.2 v 12.114 h -2.2 z"
             id="path1246" />
          <path
             style="fill:#ffffff"
             d="m 408.852,53.068 c 0,1.961 -0.502,3.581 -1.507,4.861 -1.004,1.279 -2.563,1.919 -4.676,1.919 -1.762,0 -3.161,-0.565 -4.197,-1.698 -1.037,-1.132 -1.555,-2.65 -1.555,-4.556 0,-2.049 0.546,-3.68 1.638,-4.892 1.092,-1.211 2.559,-1.817 4.401,-1.817 1.65,0 3.045,0.522 4.186,1.566 1.139,1.046 1.71,2.584 1.71,4.617 z m -2.248,0.06 c 0,-1.14 -0.192,-2.064 -0.575,-2.774 -0.607,-1.124 -1.653,-1.686 -3.138,-1.686 -1.317,0 -2.276,0.478 -2.875,1.435 -0.599,0.957 -0.898,2.108 -0.898,3.456 0,1.291 0.299,2.37 0.898,3.234 0.599,0.865 1.549,1.298 2.851,1.298 1.429,0 2.41,-0.515 2.94,-1.543 0.531,-1.028 0.797,-2.168 0.797,-3.42 z"
             id="path1248" />
          <path
             style="fill:#ffffff"
             d="m 411.438,47.244 h 2.045 v 1.723 c 0.606,-0.71 1.249,-1.22 1.928,-1.531 0.679,-0.311 1.433,-0.466 2.264,-0.466 1.82,0 3.05,0.602 3.688,1.806 0.351,0.653 0.527,1.595 0.527,2.822 v 7.809 h -2.2 v -7.665 c 0,-0.742 -0.116,-1.34 -0.347,-1.794 -0.382,-0.758 -1.076,-1.136 -2.081,-1.136 -0.51,0 -0.929,0.048 -1.256,0.143 -0.59,0.168 -1.108,0.503 -1.554,1.005 -0.359,0.398 -0.592,0.812 -0.7,1.237 -0.108,0.427 -0.162,1.039 -0.162,1.836 v 6.374 h -2.152 z"
             id="path1250" />
          <path
             style="fill:#ffffff"
             d="m 431.859,52.028 c 0.494,-0.056 0.825,-0.252 0.992,-0.586 0.096,-0.184 0.144,-0.443 0.144,-0.777 0,-0.702 -0.261,-1.21 -0.783,-1.525 -0.522,-0.314 -1.27,-0.472 -2.242,-0.472 -1.124,0 -1.921,0.286 -2.392,0.86 -0.263,0.319 -0.435,0.794 -0.514,1.423 h -2.009 c 0.04,-1.498 0.552,-2.541 1.537,-3.127 0.985,-0.586 2.127,-0.879 3.426,-0.879 1.507,0 2.73,0.271 3.671,0.813 0.933,0.55 1.399,1.399 1.399,2.547 v 7.008 c 0,0.215 0.046,0.387 0.138,0.515 0.091,0.127 0.285,0.191 0.58,0.191 0.095,0 0.203,-0.007 0.323,-0.019 0.12,-0.012 0.247,-0.029 0.383,-0.054 v 1.519 c -0.335,0.088 -0.59,0.144 -0.766,0.168 -0.175,0.023 -0.415,0.035 -0.717,0.035 -0.742,0 -1.28,-0.251 -1.615,-0.753 -0.175,-0.263 -0.299,-0.638 -0.371,-1.124 -0.438,0.55 -1.068,1.024 -1.889,1.423 -0.821,0.398 -1.726,0.598 -2.715,0.598 -1.188,0 -2.158,-0.343 -2.912,-1.028 -0.754,-0.685 -1.13,-1.542 -1.13,-2.571 0,-1.124 0.371,-1.997 1.112,-2.618 0.741,-0.622 1.714,-1.005 2.918,-1.148 z m -2.918,6.051 c 0.757,0 1.491,-0.168 2.2,-0.503 1.196,-0.55 1.794,-1.454 1.794,-2.714 v -1.65 c -0.263,0.159 -0.602,0.293 -1.017,0.4 -0.415,0.107 -0.821,0.186 -1.22,0.233 L 429.394,54 c -0.781,0.096 -1.367,0.251 -1.758,0.467 -0.662,0.351 -0.992,0.917 -0.992,1.697 0,0.591 0.227,1.057 0.682,1.399 0.455,0.344 0.993,0.516 1.615,0.516 z"
             id="path1252" />
          <path
             style="fill:#ffffff"
             d="m 438.619,42.712 h 2.153 v 16.694 h -2.153 z"
             id="path1254" />
          <path
             style="fill:#ffffff"
             d="m 461.387,51.334 h -2.093 c -0.127,-0.752 -0.418,-1.379 -0.873,-1.88 -0.454,-0.5 -1.184,-0.751 -2.188,-0.751 -1.372,0 -2.352,0.639 -2.942,1.916 -0.383,0.822 -0.574,1.84 -0.574,3.054 0,1.221 0.271,2.249 0.813,3.083 0.542,0.834 1.395,1.251 2.559,1.251 0.893,0 1.6,-0.259 2.123,-0.777 0.522,-0.518 0.883,-1.228 1.082,-2.128 h 2.093 c -0.239,1.61 -0.837,2.788 -1.794,3.533 -0.957,0.746 -2.18,1.118 -3.671,1.118 -1.674,0 -3.01,-0.58 -4.006,-1.74 -0.997,-1.159 -1.495,-2.612 -1.495,-4.358 0,-2.137 0.546,-3.799 1.638,-4.986 1.092,-1.188 2.483,-1.782 4.174,-1.782 1.443,0 2.617,0.333 3.521,0.999 0.906,0.664 1.45,1.814 1.633,3.448 z"
             id="path1256" />
          <path
             style="fill:#ffffff"
             d="m 474.92,53.068 c 0,1.961 -0.502,3.581 -1.507,4.861 -1.004,1.279 -2.563,1.919 -4.676,1.919 -1.762,0 -3.161,-0.565 -4.197,-1.698 -1.037,-1.132 -1.555,-2.65 -1.555,-4.556 0,-2.049 0.546,-3.68 1.638,-4.892 1.092,-1.211 2.559,-1.817 4.401,-1.817 1.65,0 3.045,0.522 4.186,1.566 1.14,1.046 1.71,2.584 1.71,4.617 z m -2.248,0.06 c 0,-1.14 -0.192,-2.064 -0.575,-2.774 -0.607,-1.124 -1.653,-1.686 -3.138,-1.686 -1.317,0 -2.276,0.478 -2.875,1.435 -0.599,0.957 -0.898,2.108 -0.898,3.456 0,1.291 0.299,2.37 0.898,3.234 0.599,0.865 1.549,1.298 2.851,1.298 1.429,0 2.41,-0.515 2.94,-1.543 0.531,-1.028 0.797,-2.168 0.797,-3.42 z"
             id="path1258" />
          <path
             style="fill:#ffffff"
             d="m 477.566,42.712 h 2.153 v 16.694 h -2.153 z"
             id="path1260" />
          <path
             style="fill:#ffffff"
             d="m 482.936,42.712 h 2.153 v 16.694 h -2.153 z"
             id="path1262" />
          <path
             style="fill:#ffffff"
             d="m 498.306,49.146 c 0.431,0.614 0.718,1.332 0.861,2.153 0.127,0.558 0.191,1.45 0.191,2.679 h -9.387 c 0.04,1.235 0.347,2.226 0.921,2.972 0.574,0.745 1.463,1.118 2.667,1.118 1.125,0 2.021,-0.352 2.691,-1.053 0.383,-0.414 0.653,-0.889 0.813,-1.423 h 2.117 c -0.056,0.446 -0.241,0.944 -0.556,1.494 -0.315,0.551 -0.667,0.997 -1.058,1.34 -0.654,0.605 -1.463,1.017 -2.428,1.231 -0.518,0.12 -1.104,0.18 -1.758,0.18 -1.595,0 -2.946,-0.55 -4.054,-1.65 -1.108,-1.101 -1.663,-2.643 -1.663,-4.628 0,-1.953 0.558,-3.54 1.674,-4.76 1.116,-1.22 2.575,-1.829 4.377,-1.829 0.909,0 1.79,0.201 2.643,0.604 0.853,0.403 1.503,0.926 1.949,1.572 z m -1.159,3.205 c -0.088,-0.885 -0.292,-1.594 -0.61,-2.129 -0.59,-0.98 -1.575,-1.471 -2.954,-1.471 -0.988,0 -1.817,0.339 -2.487,1.017 -0.669,0.678 -1.024,1.539 -1.064,2.583 z"
             id="path1264" />
          <path
             style="fill:#ffffff"
             d="m 509.243,47.723 c 0.407,0.271 0.821,0.658 1.244,1.16 v -1.53 h 1.985 v 11.062 c 0,1.546 -0.239,2.766 -0.718,3.659 -0.893,1.65 -2.579,2.476 -5.058,2.476 -1.379,0 -2.54,-0.293 -3.48,-0.879 -0.941,-0.587 -1.467,-1.506 -1.579,-2.757 h 2.188 c 0.104,0.554 0.311,0.979 0.622,1.275 0.486,0.457 1.251,0.686 2.296,0.686 1.65,0 2.73,-0.556 3.241,-1.666 0.303,-0.655 0.442,-1.821 0.418,-3.5 -0.431,0.622 -0.949,1.084 -1.555,1.388 -0.606,0.303 -1.407,0.454 -2.404,0.454 -1.387,0 -2.601,-0.467 -3.641,-1.399 -1.04,-0.932 -1.561,-2.479 -1.561,-4.64 0,-2.041 0.524,-3.631 1.572,-4.771 1.048,-1.14 2.314,-1.71 3.797,-1.71 1.007,-0.002 1.883,0.23 2.633,0.692 z m -2.242,1.124 c -1.517,0 -2.555,0.672 -3.114,2.016 -0.295,0.716 -0.443,1.654 -0.443,2.815 0,1.367 0.293,2.409 0.88,3.124 0.587,0.716 1.375,1.074 2.366,1.074 1.55,0 2.64,-0.664 3.271,-1.992 0.351,-0.747 0.527,-1.618 0.527,-2.612 0,-1.502 -0.327,-2.615 -0.982,-3.339 -0.657,-0.724 -1.491,-1.086 -2.505,-1.086 z"
             id="path1266" />
          <path
             style="fill:#ffffff"
             d="m 516.774,45.176 c -0.263,0 -0.508,-0.032 -0.735,-0.096 -0.228,-0.063 -0.421,-0.151 -0.58,-0.263 -0.16,-0.112 -0.285,-0.243 -0.376,-0.396 -0.092,-0.151 -0.138,-0.318 -0.138,-0.502 0,-0.191 0.048,-0.368 0.144,-0.532 0.096,-0.163 0.225,-0.307 0.389,-0.431 0.163,-0.123 0.356,-0.219 0.58,-0.287 0.223,-0.067 0.462,-0.102 0.717,-0.102 0.255,0 0.492,0.034 0.711,0.102 0.219,0.068 0.411,0.164 0.574,0.287 0.163,0.124 0.293,0.268 0.389,0.431 0.096,0.164 0.144,0.341 0.144,0.532 0,0.184 -0.046,0.351 -0.138,0.502 -0.092,0.152 -0.217,0.283 -0.377,0.396 -0.159,0.111 -0.351,0.199 -0.574,0.263 -0.223,0.064 -0.467,0.096 -0.73,0.096 z m -1.076,2.116 h 2.2 v 12.114 h -2.2 z m 0,0 h 2.2 v 12.114 h -2.2 z"
             id="path1268" />
          <path
             style="fill:#ffffff"
             d="m 527.891,52.028 c 0.494,-0.056 0.825,-0.252 0.992,-0.586 0.096,-0.184 0.144,-0.443 0.144,-0.777 0,-0.702 -0.261,-1.21 -0.783,-1.525 -0.522,-0.314 -1.27,-0.472 -2.242,-0.472 -1.124,0 -1.921,0.286 -2.392,0.86 -0.263,0.319 -0.435,0.794 -0.514,1.423 h -2.009 c 0.04,-1.498 0.552,-2.541 1.537,-3.127 0.985,-0.586 2.127,-0.879 3.426,-0.879 1.507,0 2.73,0.271 3.671,0.813 0.933,0.55 1.399,1.399 1.399,2.547 v 7.008 c 0,0.215 0.046,0.387 0.138,0.515 0.091,0.127 0.285,0.191 0.58,0.191 0.095,0 0.203,-0.007 0.323,-0.019 0.12,-0.012 0.247,-0.029 0.383,-0.054 v 1.519 c -0.335,0.088 -0.59,0.144 -0.766,0.168 -0.175,0.023 -0.415,0.035 -0.717,0.035 -0.742,0 -1.28,-0.251 -1.615,-0.753 -0.175,-0.263 -0.299,-0.638 -0.371,-1.124 -0.438,0.55 -1.068,1.024 -1.889,1.423 -0.821,0.398 -1.726,0.598 -2.715,0.598 -1.188,0 -2.158,-0.343 -2.912,-1.028 -0.754,-0.685 -1.13,-1.542 -1.13,-2.571 0,-1.124 0.371,-1.997 1.112,-2.618 0.741,-0.622 1.714,-1.005 2.918,-1.148 z m -2.918,6.051 c 0.757,0 1.491,-0.168 2.2,-0.503 1.196,-0.55 1.794,-1.454 1.794,-2.714 v -1.65 c -0.263,0.159 -0.602,0.293 -1.017,0.4 -0.415,0.107 -0.821,0.186 -1.22,0.233 L 525.426,54 c -0.781,0.096 -1.367,0.251 -1.758,0.467 -0.662,0.351 -0.992,0.917 -0.992,1.697 0,0.591 0.227,1.057 0.682,1.399 0.455,0.344 0.993,0.516 1.615,0.516 z"
             id="path1270" />
          <path
             style="fill:#ffffff"
             d="m 534.879,43.849 h 2.177 v 3.396 h 2.045 v 1.675 h -2.045 v 7.932 c 0,0.422 0.151,0.708 0.454,0.859 0.167,0.08 0.447,0.12 0.837,0.12 0.104,0 0.215,-0.002 0.335,-0.006 0.119,-0.004 0.259,-0.015 0.418,-0.03 v 1.612 c -0.248,0.072 -0.504,0.122 -0.771,0.149 -0.267,0.028 -0.556,0.042 -0.867,0.042 -1.005,0 -1.687,-0.243 -2.045,-0.729 -0.359,-0.486 -0.539,-1.119 -0.539,-1.899 v -8.051 h -1.734 v -1.675 h 1.734 v -3.395 z"
             id="path1272" />
          <path
             style="fill:#ffffff"
             d="m 550.926,49.146 c 0.431,0.614 0.718,1.332 0.861,2.153 0.127,0.558 0.191,1.45 0.191,2.679 h -9.387 c 0.04,1.235 0.347,2.226 0.921,2.972 0.574,0.745 1.463,1.118 2.667,1.118 1.125,0 2.021,-0.352 2.691,-1.053 0.383,-0.414 0.653,-0.889 0.813,-1.423 h 2.117 c -0.056,0.446 -0.241,0.944 -0.556,1.494 -0.315,0.551 -0.667,0.997 -1.058,1.34 -0.654,0.605 -1.463,1.017 -2.428,1.231 -0.518,0.12 -1.104,0.18 -1.758,0.18 -1.595,0 -2.946,-0.55 -4.054,-1.65 -1.108,-1.101 -1.663,-2.643 -1.663,-4.628 0,-1.953 0.558,-3.54 1.674,-4.76 1.116,-1.22 2.575,-1.829 4.377,-1.829 0.909,0 1.79,0.201 2.643,0.604 0.853,0.403 1.503,0.926 1.949,1.572 z m -1.159,3.205 c -0.088,-0.885 -0.292,-1.594 -0.61,-2.129 -0.59,-0.98 -1.575,-1.471 -2.954,-1.471 -0.988,0 -1.817,0.339 -2.487,1.017 -0.669,0.678 -1.024,1.539 -1.064,2.583 z"
             id="path1274" />
        </g>
        <g
           id="g1314"
           style="fill:#ffffff">
          <path
             style="fill:#ffffff"
             d="m 311.364,71.569 h 2.093 v 1.614 c 0.431,-0.55 0.901,-0.976 1.411,-1.279 0.725,-0.454 1.579,-0.682 2.559,-0.682 1.451,0 2.683,0.528 3.695,1.585 1.013,1.057 1.519,2.564 1.519,4.526 0,2.646 -0.729,4.54 -2.188,5.68 -0.925,0.718 -2.001,1.076 -3.229,1.076 -0.964,0 -1.774,-0.199 -2.427,-0.598 -0.383,-0.231 -0.81,-0.622 -1.28,-1.172 v 6.219 h -2.152 V 71.569 Z m 9.077,5.956 c 0,-0.965 -0.148,-1.798 -0.443,-2.5 -0.558,-1.339 -1.578,-2.009 -3.061,-2.009 -1.491,0 -2.511,0.71 -3.062,2.129 -0.295,0.757 -0.442,1.718 -0.442,2.882 0,0.94 0.147,1.738 0.442,2.392 0.558,1.26 1.579,1.89 3.062,1.89 1.004,0 1.839,-0.398 2.505,-1.196 0.666,-0.798 0.999,-1.994 0.999,-3.588 z"
             id="path1278" />
          <path
             style="fill:#ffffff"
             d="m 325.238,71.522 h 2.045 v 2.093 c 0.167,-0.406 0.578,-0.902 1.232,-1.488 0.653,-0.586 1.407,-0.879 2.26,-0.879 0.04,0 0.107,0.004 0.203,0.012 0.096,0.008 0.259,0.023 0.49,0.048 v 2.152 c -0.127,-0.023 -0.245,-0.04 -0.353,-0.048 -0.108,-0.008 -0.226,-0.012 -0.353,-0.012 -1.084,0 -1.917,0.333 -2.5,0.998 -0.582,0.666 -0.873,1.43 -0.873,2.29 v 6.996 h -2.153 V 71.522 Z"
             id="path1280" />
          <path
             style="fill:#ffffff"
             d="m 344.401,77.346 c 0,1.961 -0.502,3.581 -1.507,4.861 -1.004,1.279 -2.563,1.919 -4.676,1.919 -1.762,0 -3.161,-0.565 -4.197,-1.698 -1.037,-1.132 -1.555,-2.65 -1.555,-4.556 0,-2.049 0.546,-3.68 1.638,-4.892 1.092,-1.211 2.559,-1.817 4.401,-1.817 1.65,0 3.045,0.522 4.186,1.566 1.14,1.045 1.71,2.584 1.71,4.617 z m -2.248,0.059 c 0,-1.14 -0.192,-2.064 -0.575,-2.774 -0.607,-1.124 -1.653,-1.686 -3.138,-1.686 -1.317,0 -2.276,0.478 -2.875,1.435 -0.599,0.957 -0.898,2.108 -0.898,3.456 0,1.291 0.299,2.37 0.898,3.234 0.599,0.865 1.549,1.298 2.851,1.298 1.429,0 2.41,-0.515 2.94,-1.543 0.531,-1.028 0.797,-2.168 0.797,-3.42 z"
             id="path1282" />
          <path
             style="fill:#ffffff"
             d="m 354.253,72 c 0.407,0.271 0.821,0.658 1.244,1.16 v -1.53 h 1.985 v 11.062 c 0,1.546 -0.239,2.766 -0.718,3.659 -0.893,1.65 -2.579,2.476 -5.058,2.476 -1.379,0 -2.54,-0.293 -3.48,-0.879 -0.941,-0.587 -1.467,-1.506 -1.579,-2.757 h 2.188 c 0.104,0.554 0.311,0.979 0.622,1.275 0.486,0.457 1.251,0.686 2.296,0.686 1.65,0 2.73,-0.556 3.241,-1.666 0.303,-0.655 0.442,-1.821 0.418,-3.5 -0.431,0.622 -0.949,1.084 -1.555,1.388 -0.606,0.303 -1.407,0.454 -2.404,0.454 -1.387,0 -2.601,-0.467 -3.641,-1.399 -1.04,-0.932 -1.561,-2.479 -1.561,-4.64 0,-2.041 0.524,-3.631 1.572,-4.771 1.048,-1.14 2.314,-1.71 3.797,-1.71 1.007,-0.001 1.884,0.23 2.633,0.692 z m -2.242,1.124 c -1.517,0 -2.555,0.672 -3.114,2.016 -0.295,0.716 -0.443,1.654 -0.443,2.815 0,1.367 0.293,2.409 0.88,3.124 0.587,0.716 1.375,1.074 2.366,1.074 1.55,0 2.64,-0.664 3.271,-1.992 0.351,-0.747 0.527,-1.618 0.527,-2.612 0,-1.502 -0.327,-2.615 -0.982,-3.339 -0.656,-0.724 -1.491,-1.086 -2.505,-1.086 z"
             id="path1284" />
          <path
             style="fill:#ffffff"
             d="m 360.716,71.522 h 2.045 v 2.093 c 0.167,-0.406 0.578,-0.902 1.232,-1.488 0.653,-0.586 1.407,-0.879 2.26,-0.879 0.04,0 0.107,0.004 0.203,0.012 0.096,0.008 0.259,0.023 0.49,0.048 v 2.152 c -0.127,-0.023 -0.245,-0.04 -0.353,-0.048 -0.108,-0.008 -0.226,-0.012 -0.353,-0.012 -1.084,0 -1.917,0.333 -2.5,0.998 -0.582,0.666 -0.873,1.43 -0.873,2.29 v 6.996 h -2.153 V 71.522 Z"
             id="path1286" />
          <path
             style="fill:#ffffff"
             d="m 375.611,76.306 c 0.494,-0.056 0.825,-0.252 0.992,-0.586 0.096,-0.184 0.144,-0.443 0.144,-0.777 0,-0.702 -0.261,-1.21 -0.783,-1.525 -0.522,-0.314 -1.27,-0.472 -2.242,-0.472 -1.124,0 -1.921,0.286 -2.392,0.86 -0.263,0.319 -0.435,0.794 -0.514,1.423 h -2.009 c 0.04,-1.498 0.552,-2.541 1.537,-3.127 0.985,-0.586 2.127,-0.879 3.426,-0.879 1.507,0 2.73,0.271 3.671,0.813 0.933,0.55 1.399,1.399 1.399,2.547 v 7.008 c 0,0.215 0.046,0.387 0.138,0.515 0.091,0.127 0.285,0.191 0.58,0.191 0.095,0 0.203,-0.007 0.323,-0.019 0.12,-0.012 0.247,-0.029 0.383,-0.054 v 1.519 c -0.335,0.088 -0.59,0.144 -0.766,0.168 -0.175,0.023 -0.415,0.035 -0.717,0.035 -0.742,0 -1.28,-0.251 -1.615,-0.753 -0.175,-0.263 -0.299,-0.638 -0.371,-1.124 -0.438,0.55 -1.068,1.024 -1.889,1.423 -0.821,0.398 -1.726,0.598 -2.715,0.598 -1.188,0 -2.158,-0.343 -2.912,-1.028 -0.754,-0.685 -1.13,-1.542 -1.13,-2.571 0,-1.124 0.371,-1.997 1.112,-2.618 0.741,-0.622 1.714,-1.005 2.918,-1.148 z m -2.918,6.05 c 0.757,0 1.491,-0.168 2.2,-0.503 1.196,-0.55 1.794,-1.454 1.794,-2.714 v -1.65 c -0.263,0.159 -0.602,0.293 -1.017,0.4 -0.415,0.107 -0.821,0.186 -1.22,0.233 l -1.304,0.155 c -0.781,0.096 -1.367,0.251 -1.758,0.467 -0.662,0.351 -0.992,0.917 -0.992,1.697 0,0.591 0.227,1.057 0.682,1.399 0.454,0.345 0.992,0.516 1.615,0.516 z"
             id="path1288" />
          <path
             style="fill:#ffffff"
             d="m 382.35,71.522 h 2.128 v 1.723 c 0.511,-0.599 0.974,-1.032 1.389,-1.304 0.71,-0.462 1.517,-0.693 2.419,-0.693 1.022,0 1.844,0.239 2.467,0.717 0.352,0.271 0.671,0.67 0.958,1.196 0.478,-0.646 1.039,-1.126 1.684,-1.441 0.645,-0.314 1.37,-0.472 2.174,-0.472 1.72,0 2.89,0.59 3.511,1.77 0.334,0.638 0.501,1.495 0.501,2.571 v 8.096 h -2.236 V 75.23 c 0,-0.805 -0.212,-1.358 -0.638,-1.662 -0.426,-0.303 -0.945,-0.454 -1.557,-0.454 -0.843,0 -1.569,0.268 -2.177,0.801 -0.609,0.534 -0.913,1.432 -0.913,2.691 v 7.079 h -2.2 v -7.94 c 0,-0.829 -0.104,-1.431 -0.311,-1.806 -0.327,-0.566 -0.937,-0.849 -1.83,-0.849 -0.813,0 -1.553,0.299 -2.218,0.896 -0.665,0.597 -0.999,1.679 -0.999,3.24 v 6.458 h -2.152 z"
             id="path1290" />
          <path
             style="fill:#ffffff"
             d="m 402.734,71.522 h 2.128 v 1.723 c 0.511,-0.599 0.974,-1.032 1.389,-1.304 0.71,-0.462 1.517,-0.693 2.419,-0.693 1.022,0 1.844,0.239 2.467,0.717 0.352,0.271 0.671,0.67 0.958,1.196 0.478,-0.646 1.039,-1.126 1.684,-1.441 0.645,-0.314 1.37,-0.472 2.174,-0.472 1.72,0 2.89,0.59 3.511,1.77 0.334,0.638 0.501,1.495 0.501,2.571 v 8.096 h -2.236 V 75.23 c 0,-0.805 -0.212,-1.358 -0.638,-1.662 -0.426,-0.303 -0.945,-0.454 -1.557,-0.454 -0.843,0 -1.569,0.268 -2.177,0.801 -0.609,0.534 -0.913,1.432 -0.913,2.691 v 7.079 h -2.2 v -7.94 c 0,-0.829 -0.104,-1.431 -0.311,-1.806 -0.327,-0.566 -0.937,-0.849 -1.83,-0.849 -0.813,0 -1.553,0.299 -2.218,0.896 -0.665,0.597 -0.999,1.679 -0.999,3.24 v 6.458 h -2.152 z"
             id="path1292" />
          <path
             style="fill:#ffffff"
             d="m 424.145,69.453 c -0.263,0 -0.508,-0.032 -0.735,-0.096 -0.228,-0.063 -0.421,-0.151 -0.58,-0.263 -0.16,-0.112 -0.285,-0.243 -0.376,-0.396 -0.092,-0.151 -0.138,-0.318 -0.138,-0.502 0,-0.191 0.048,-0.368 0.144,-0.532 0.096,-0.163 0.225,-0.307 0.389,-0.431 0.163,-0.123 0.356,-0.219 0.58,-0.287 0.223,-0.067 0.462,-0.102 0.717,-0.102 0.255,0 0.492,0.034 0.711,0.102 0.219,0.068 0.411,0.164 0.574,0.287 0.163,0.124 0.293,0.268 0.389,0.431 0.096,0.164 0.144,0.341 0.144,0.532 0,0.184 -0.046,0.351 -0.138,0.502 -0.092,0.152 -0.217,0.283 -0.377,0.396 -0.159,0.111 -0.351,0.199 -0.574,0.263 -0.223,0.064 -0.467,0.096 -0.73,0.096 z m -1.076,2.116 h 2.2 v 12.114 h -2.2 z m 0,0 h 2.2 v 12.114 h -2.2 z"
             id="path1294" />
          <path
             style="fill:#ffffff"
             d="m 428.498,71.522 h 2.045 v 1.723 c 0.606,-0.71 1.249,-1.22 1.928,-1.531 0.679,-0.311 1.433,-0.466 2.264,-0.466 1.82,0 3.05,0.602 3.688,1.806 0.351,0.653 0.527,1.595 0.527,2.822 v 7.809 h -2.2 V 76.02 c 0,-0.742 -0.116,-1.34 -0.347,-1.794 -0.382,-0.758 -1.076,-1.136 -2.081,-1.136 -0.51,0 -0.929,0.048 -1.256,0.143 -0.59,0.168 -1.108,0.503 -1.554,1.005 -0.359,0.398 -0.592,0.812 -0.7,1.237 -0.108,0.427 -0.162,1.039 -0.162,1.836 v 6.374 h -2.152 z"
             id="path1296" />
          <path
             style="fill:#ffffff"
             d="m 449.382,72 c 0.407,0.271 0.821,0.658 1.244,1.16 v -1.53 h 1.985 v 11.062 c 0,1.546 -0.239,2.766 -0.718,3.659 -0.893,1.65 -2.579,2.476 -5.058,2.476 -1.379,0 -2.54,-0.293 -3.48,-0.879 -0.941,-0.587 -1.467,-1.506 -1.579,-2.757 h 2.188 c 0.104,0.554 0.311,0.979 0.622,1.275 0.486,0.457 1.251,0.686 2.296,0.686 1.65,0 2.73,-0.556 3.241,-1.666 0.303,-0.655 0.442,-1.821 0.418,-3.5 -0.431,0.622 -0.949,1.084 -1.555,1.388 -0.606,0.303 -1.407,0.454 -2.404,0.454 -1.387,0 -2.601,-0.467 -3.641,-1.399 -1.04,-0.932 -1.561,-2.479 -1.561,-4.64 0,-2.041 0.524,-3.631 1.572,-4.771 1.048,-1.14 2.314,-1.71 3.797,-1.71 1.007,-0.001 1.884,0.23 2.633,0.692 z m -2.242,1.124 c -1.517,0 -2.555,0.672 -3.114,2.016 -0.295,0.716 -0.443,1.654 -0.443,2.815 0,1.367 0.293,2.409 0.88,3.124 0.587,0.716 1.375,1.074 2.366,1.074 1.55,0 2.64,-0.664 3.271,-1.992 0.351,-0.747 0.527,-1.618 0.527,-2.612 0,-1.502 -0.327,-2.615 -0.982,-3.339 -0.657,-0.724 -1.491,-1.086 -2.505,-1.086 z"
             id="path1298" />
          <path
             style="fill:#ffffff"
             d="m 473.238,75.611 h -2.093 c -0.127,-0.752 -0.418,-1.379 -0.873,-1.88 -0.454,-0.5 -1.184,-0.751 -2.188,-0.751 -1.372,0 -2.352,0.639 -2.942,1.916 -0.383,0.822 -0.574,1.84 -0.574,3.054 0,1.221 0.271,2.249 0.813,3.083 0.542,0.834 1.395,1.251 2.559,1.251 0.893,0 1.6,-0.259 2.123,-0.777 0.522,-0.518 0.883,-1.228 1.082,-2.128 h 2.093 c -0.239,1.61 -0.837,2.788 -1.794,3.533 -0.957,0.746 -2.18,1.118 -3.671,1.118 -1.674,0 -3.01,-0.58 -4.006,-1.74 -0.997,-1.159 -1.495,-2.612 -1.495,-4.358 0,-2.137 0.546,-3.799 1.638,-4.986 1.092,-1.188 2.483,-1.782 4.174,-1.782 1.443,0 2.617,0.333 3.521,0.999 0.906,0.664 1.45,1.815 1.633,3.448 z"
             id="path1300" />
          <path
             style="fill:#ffffff"
             d="m 486.771,77.346 c 0,1.961 -0.502,3.581 -1.507,4.861 -1.004,1.279 -2.563,1.919 -4.676,1.919 -1.762,0 -3.161,-0.565 -4.197,-1.698 -1.037,-1.132 -1.555,-2.65 -1.555,-4.556 0,-2.049 0.546,-3.68 1.638,-4.892 1.092,-1.211 2.559,-1.817 4.401,-1.817 1.65,0 3.045,0.522 4.186,1.566 1.14,1.045 1.71,2.584 1.71,4.617 z m -2.248,0.059 c 0,-1.14 -0.192,-2.064 -0.575,-2.774 -0.607,-1.124 -1.653,-1.686 -3.138,-1.686 -1.317,0 -2.276,0.478 -2.875,1.435 -0.599,0.957 -0.898,2.108 -0.898,3.456 0,1.291 0.299,2.37 0.898,3.234 0.599,0.865 1.549,1.298 2.851,1.298 1.429,0 2.41,-0.515 2.94,-1.543 0.532,-1.028 0.797,-2.168 0.797,-3.42 z"
             id="path1302" />
          <path
             style="fill:#ffffff"
             d="m 489.357,71.522 h 2.045 v 1.723 c 0.606,-0.71 1.249,-1.22 1.928,-1.531 0.679,-0.311 1.433,-0.466 2.264,-0.466 1.82,0 3.05,0.602 3.688,1.806 0.351,0.653 0.527,1.595 0.527,2.822 v 7.809 h -2.2 V 76.02 c 0,-0.742 -0.116,-1.34 -0.347,-1.794 -0.382,-0.758 -1.076,-1.136 -2.081,-1.136 -0.51,0 -0.929,0.048 -1.256,0.143 -0.59,0.168 -1.108,0.503 -1.554,1.005 -0.359,0.398 -0.592,0.812 -0.7,1.237 -0.108,0.427 -0.162,1.039 -0.162,1.836 v 6.374 h -2.152 z"
             id="path1304" />
          <path
             style="fill:#ffffff"
             d="m 503.313,68.126 h 2.177 v 3.396 h 2.045 v 1.675 h -2.045 v 7.932 c 0,0.422 0.151,0.708 0.454,0.859 0.167,0.08 0.447,0.12 0.837,0.12 0.104,0 0.215,-0.002 0.335,-0.006 0.119,-0.004 0.259,-0.015 0.418,-0.03 v 1.612 c -0.248,0.072 -0.504,0.122 -0.771,0.149 -0.267,0.028 -0.556,0.042 -0.867,0.042 -1.005,0 -1.687,-0.243 -2.045,-0.729 -0.359,-0.486 -0.539,-1.119 -0.539,-1.899 v -8.051 h -1.734 v -1.675 h 1.734 v -3.395 z"
             id="path1306" />
          <path
             style="fill:#ffffff"
             d="m 519.36,73.423 c 0.431,0.614 0.718,1.332 0.861,2.153 0.127,0.558 0.191,1.45 0.191,2.679 h -9.387 c 0.04,1.235 0.347,2.226 0.921,2.972 0.574,0.745 1.463,1.118 2.667,1.118 1.125,0 2.021,-0.352 2.691,-1.053 0.383,-0.414 0.653,-0.889 0.813,-1.423 h 2.117 c -0.056,0.446 -0.241,0.944 -0.556,1.494 -0.315,0.551 -0.667,0.997 -1.058,1.34 -0.654,0.605 -1.463,1.017 -2.428,1.231 -0.518,0.12 -1.104,0.18 -1.758,0.18 -1.595,0 -2.946,-0.55 -4.054,-1.65 -1.108,-1.101 -1.663,-2.643 -1.663,-4.628 0,-1.953 0.558,-3.54 1.674,-4.76 1.116,-1.22 2.575,-1.829 4.377,-1.829 0.909,0 1.79,0.201 2.643,0.604 0.853,0.403 1.503,0.926 1.949,1.572 z m -1.16,3.205 c -0.088,-0.885 -0.292,-1.594 -0.61,-2.129 -0.59,-0.98 -1.575,-1.471 -2.954,-1.471 -0.988,0 -1.817,0.339 -2.487,1.017 -0.669,0.678 -1.024,1.539 -1.064,2.583 z"
             id="path1308" />
          <path
             style="fill:#ffffff"
             d="m 524.312,79.869 c 0.063,0.678 0.243,1.199 0.538,1.566 0.541,0.662 1.479,0.992 2.816,0.992 0.795,0 1.496,-0.165 2.1,-0.496 0.605,-0.331 0.907,-0.843 0.907,-1.536 0,-0.519 -0.243,-0.913 -0.729,-1.185 -0.311,-0.167 -0.925,-0.362 -1.842,-0.586 l -1.71,-0.406 c -1.092,-0.255 -1.897,-0.542 -2.416,-0.861 -0.925,-0.55 -1.387,-1.315 -1.387,-2.296 0,-1.148 0.438,-2.079 1.315,-2.792 0.877,-0.714 2.053,-1.07 3.528,-1.07 1.929,0 3.32,0.538 4.173,1.614 0.534,0.678 0.793,1.411 0.777,2.2 h -2.033 c -0.04,-0.462 -0.211,-0.881 -0.514,-1.256 -0.495,-0.542 -1.352,-0.812 -2.571,-0.812 -0.813,0 -1.429,0.147 -1.848,0.442 -0.419,0.295 -0.628,0.686 -0.628,1.172 0,0.534 0.275,0.961 0.824,1.279 0.318,0.184 0.788,0.347 1.409,0.49 l 1.421,0.335 c 1.544,0.358 2.579,0.701 3.104,1.028 0.835,0.526 1.253,1.352 1.253,2.476 0,1.076 -0.432,2.009 -1.295,2.798 -0.863,0.789 -2.179,1.185 -3.946,1.185 -1.903,0 -3.25,-0.411 -4.044,-1.232 -0.793,-0.82 -1.218,-1.837 -1.273,-3.049 z"
             id="path1310" />
          <path
             style="fill:#ffffff"
             d="m 535.751,68.126 h 2.177 v 3.396 h 2.045 v 1.675 h -2.045 v 7.932 c 0,0.422 0.151,0.708 0.454,0.859 0.167,0.08 0.447,0.12 0.837,0.12 0.104,0 0.215,-0.002 0.335,-0.006 0.119,-0.004 0.259,-0.015 0.418,-0.03 v 1.612 c -0.248,0.072 -0.504,0.122 -0.771,0.149 -0.267,0.028 -0.556,0.042 -0.867,0.042 -1.005,0 -1.687,-0.243 -2.045,-0.729 -0.359,-0.486 -0.539,-1.119 -0.539,-1.899 v -8.051 h -1.734 v -1.675 h 1.734 v -3.395 z"
             id="path1312" />
        </g>
      </g>
    </g>
    <g
       id="g1363"
       style="fill:#ffffff"
       transform="matrix(1.854772,0,0,1.854772,260.37269,200.39003)">
      <path
         id="_x31__2_"
         style="fill:#ffffff"
         d="m 23.64,92.53 c -1.599,0 -1.771,1.019 -1.771,1.459 0,0.439 0.172,1.459 1.771,1.459 1.208,0 1.99,-0.573 1.99,-1.459 0,-0.888 -0.781,-1.459 -1.99,-1.459 z m 0,2.041 c -0.894,0 -0.894,-0.393 -0.894,-0.582 0,-0.189 0,-0.582 0.894,-0.582 0.113,0 1.113,0.017 1.113,0.582 0,0.566 -0.999,0.582 -1.113,0.582 z" />
      <g
         id="g1361"
         style="fill:#ffffff">
        <g
           id="solve_2_"
           style="fill:#ffffff">
          <path
             style="fill:#ffffff"
             d="m 152.551,48.945 -11.079,-10e-4 c 4.882,3.645 7.641,7.431 8.204,11.256 0.448,3.059 -0.51,6.15 -2.846,9.189 l -0.094,0.122 c -4.247,5.415 -12.916,9.508 -16.448,11.015 -0.399,0.122 -0.8,0.24 -1.205,0.359 h 23.469 c 3.045,0 5.521,-2.488 5.521,-5.546 V 54.49 c 0,-3.057 -2.477,-5.545 -5.522,-5.545 z"
             id="path1321" />
          <path
             style="fill:#ffffff"
             d="m 138.979,49.14 -0.256,-0.196 h -15.222 c -3.043,0 -5.52,2.488 -5.52,5.546 v 20.849 c 0,3.059 2.476,5.547 5.52,5.547 h 0.082 l 0.631,-0.209 c 14.163,-4.686 23.248,-11.787 23.706,-18.532 0.465,-6.791 -7.976,-12.389 -8.941,-13.005 z"
             id="path1323" />
          <path
             id="Bill_2_"
             style="fill:#ffffff"
             d="m 150.978,22.966 c 0.153,-0.895 0.23,-1.786 0.23,-2.647 0,-4.248 -1.851,-7.714 -5.355,-10.024 -4.687,-3.088 -11.415,-3.188 -15.997,-0.231 -3.555,2.293 -5.434,5.99 -5.434,10.692 0,0.981 0.086,2.017 0.254,3.081 0.805,5.041 3.317,9.239 7.474,12.496 -2.113,-0.573 -4.873,-0.847 -6.068,1.092 -0.588,0.954 -0.445,1.88 0.386,2.476 1.537,1.103 5.27,0.811 7.525,-0.479 l -1.547,3.605 h 3.159 0.218 0.971 0.221 5.821 l -2.078,-4.157 c 2.514,1.051 5.428,2.001 7.002,1.04 0.64,-0.39 0.988,-1.025 1.033,-1.887 0.059,-1.158 -0.469,-1.783 -0.923,-2.102 -0.792,-0.561 -2.089,-0.702 -3.859,-0.416 0.183,-0.15 0.358,-0.3 0.532,-0.454 2.355,-2.098 5.383,-5.897 6.435,-12.085 z m -23.745,15.872 c -0.15,-0.107 -0.334,-0.242 -0.035,-0.726 0.9,-1.467 3.908,-0.904 6.353,0.068 -1.881,1.25 -5.344,1.358 -6.318,0.658 z m 19.884,-1.848 c 0.188,0.133 0.399,0.363 0.369,0.963 -0.024,0.417 -0.154,0.684 -0.408,0.839 -0.593,0.363 -2.114,0.434 -5.962,-1.19 2.347,-0.782 5.011,-1.31 6.001,-0.612 z m -7.651,-0.188 c -0.157,0.062 -0.275,0.109 -0.331,0.132 l -0.458,0.159 -0.219,0.107 0.008,0.014 -0.756,0.313 1.172,0.525 1.836,3.667 h -6.282 l 1.809,-4.219 -0.658,-0.392 c -5.472,-3.247 -8.708,-7.781 -9.615,-13.476 -0.156,-0.981 -0.236,-1.942 -0.236,-2.858 0,-4.247 1.671,-7.569 4.832,-9.608 4.165,-2.686 10.293,-2.594 14.565,0.224 3.118,2.057 4.765,5.151 4.765,8.95 0,0.774 -0.071,1.585 -0.21,2.409 -1.688,9.921 -8.803,13.444 -10.222,14.053 z" />
          <path
             style="fill:#ffffff"
             d="m 140.916,48.687 -0.09,-0.063 c -0.001,-0.001 -0.017,-0.009 -0.041,-0.024 -0.372,-0.216 -3.168,-1.966 -3.77,-5.573 h -0.221 -0.971 -0.219 c 0.073,0.77 0.498,3.549 2.89,5.573 0.035,0.03 0.074,0.058 0.111,0.088 0.054,0.043 0.108,0.086 0.163,0.129 h 0.212 l 1.895,-10e-4 h 0.225 z"
             id="path1326" />
        </g>
        <g
           id="create_2_"
           style="fill:#ffffff">
          <path
             style="fill:#ffffff"
             d="m 103.092,48.946 h -1.99 l -0.009,0.214 c -0.164,4.488 -2.121,7.271 -3.741,8.818 -1.564,1.494 -3.098,2.151 -3.45,2.215 l -0.929,6.436 H 83.915 L 83.12,60.244 C 76.306,57.632 76.047,50.471 75.971,49.062 l -0.005,-0.118 -1.997,10e-4 c -3.052,0 -5.535,2.494 -5.535,5.559 v 20.9 c 0,2.794 2.068,5.09 4.743,5.481 h 30.707 c 2.675,-0.39 4.743,-2.687 4.743,-5.481 v -20.9 c 0.001,-3.064 -2.482,-5.558 -5.535,-5.558 z M 84.02,68.148 h 9.005 v 1.328 H 84.02 Z m 0,2.544 h 9.005 V 72.02 H 84.02 Z m 6.207,6.416 H 86.681 V 75.78 h 3.546 z m 2.822,-2.544 h -9.005 v -1.328 h 9.005 z"
             id="path1329" />
          <path
             style="fill:#ffffff"
             d="m 83.885,55.478 5.162,-2.113 -4.434,-1.352 3.115,-2.855 0.207,-0.213 H 77.663 v 0.213 c 0.071,1.28 0.277,7.611 6.632,9.99 l 0.122,0.045 0.017,0.129 0.735,5.798 h 2.683 v -7.003 l 1.422,-1.169 z"
             id="path1331" />
          <path
             style="fill:#ffffff"
             d="m 89.824,48.944 -0.181,0.215 -2.305,2.204 5.937,1.666 -5.31,2.182 4.17,1.169 -2.901,2.365 v 6.377 h 2.445 l 0.847,-5.969 0.113,-0.048 c 6.346,-2.648 6.789,-8.724 6.812,-9.945 v -0.215 h -9.627 z"
             id="path1333" />
          <rect
             x="99.861"
             y="41.061001"
             transform="matrix(0.8945,-0.4472,0.4472,0.8945,-7.5732,51.3461)"
             style="fill:#ffffff"
             width="10.241"
             height="1.309"
             id="rect1335" />
          <rect
             x="95.973"
             y="35.825001"
             transform="matrix(0.7476,-0.6641,0.6641,0.7476,1.3831,76.598)"
             style="fill:#ffffff"
             width="10.997"
             height="1.3099999"
             id="rect1337" />
          <rect
             x="90.186996"
             y="31.658001"
             transform="matrix(0.3967,-0.918,0.918,0.3967,28.0534,107.3075)"
             style="fill:#ffffff"
             width="10.943"
             height="1.3099999"
             id="rect1339" />
          <rect
             x="87.875999"
             y="24.993"
             style="fill:#ffffff"
             width="1.3099999"
             height="11.237"
             id="rect1341" />
          <polygon
             style="fill:#ffffff"
             points="79.922,27.229 79.836,27.031 78.632,27.551 82.886,37.396 82.974,37.596 84.176,37.076 "
             id="polygon1343" />
          <rect
             x="74.936996"
             y="30.981001"
             transform="matrix(0.6631,-0.7485,0.7485,0.6631,-1.839,68.8727)"
             style="fill:#ffffff"
             width="1.3099999"
             height="10.997"
             id="rect1345" />
          <rect
             x="71.426003"
             y="36.595001"
             transform="matrix(0.4467,-0.8947,0.8947,0.4467,2.5596,87.5701)"
             style="fill:#ffffff"
             width="1.309"
             height="10.241"
             id="rect1347" />
        </g>
        <g
           id="g1359"
           style="fill:#ffffff">
          <path
             id="_x34__2_"
             style="fill:#ffffff"
             d="m 42.052,86.008 c -1.89,0 -3.427,1.275 -3.427,2.843 0,1.568 1.537,2.843 3.427,2.843 1.89,0 3.429,-1.275 3.429,-2.843 0,-1.568 -1.538,-2.843 -3.429,-2.843 z m 0,4.593 c -1.287,0 -2.333,-0.785 -2.333,-1.75 0,-0.965 1.047,-1.75 2.333,-1.75 1.287,0 2.335,0.785 2.335,1.75 0,0.965 -1.048,1.75 -2.335,1.75 z" />
          <path
             id="_x33__2_"
             style="fill:#ffffff"
             d="m 37.919,90.995 c -0.135,-1.328 -1.489,-2.282 -3.017,-2.127 -1.529,0.155 -2.662,1.362 -2.527,2.69 0.13,1.281 1.39,2.092 2.996,1.929 1.606,-0.163 2.678,-1.212 2.548,-2.492 z m -2.647,1.506 c -0.846,0.086 -1.794,-0.205 -1.88,-1.046 -0.08,-0.784 0.642,-1.502 1.611,-1.601 0.967,-0.098 1.819,0.46 1.899,1.244 0.085,0.842 -0.785,1.317 -1.63,1.403 z" />
          <path
             id="_x32__2_"
             style="fill:#ffffff"
             d="m 28.998,91 c -1.505,0 -2.438,0.707 -2.438,1.846 0,1.139 0.933,1.846 2.438,1.846 1.503,0 2.437,-0.707 2.437,-1.846 C 31.435,91.708 30.502,91 28.998,91 Z m -0.001,2.713 c -0.675,0 -1.483,-0.149 -1.483,-0.866 0,-0.715 0.807,-0.864 1.483,-0.864 0.677,0 1.484,0.149 1.484,0.864 0,0.717 -0.807,0.866 -1.484,0.866 z" />
          <path
             style="fill:#ffffff"
             d="m 63.05,70.348 c -0.107,-1.824 -1.331,-3.525 -3.63,-5.059 -0.03,-0.02 -0.056,-0.041 -0.086,-0.062 -0.005,-0.003 -0.008,-0.006 -0.013,-0.01 l -0.115,-0.076 v 0.2 0.059 1.124 0.256 c 0.051,0.033 0.133,0.089 0.215,0.148 0.653,0.463 2.099,1.667 2.267,3.372 0.139,1.41 -0.626,2.861 -2.267,4.316 -0.02,0.02 -0.038,0.038 -0.059,0.056 l -0.156,0.138 -0.109,0.095 0.109,0.042 0.215,0.086 0.003,0.001 c 0.024,0.011 2.397,1.012 1.267,4.522 -0.017,0.054 -1.638,5.447 -8.242,5.447 h -0.056 c -0.036,0.006 -4.062,0.209 -9.414,-2.822 l -0.147,-0.082 -0.116,0.121 c -0.026,0.027 -2.613,2.686 -5.565,2.625 -0.038,0.008 -2.63,0.198 -4.316,-3.205 l -0.086,-0.171 -0.18,0.062 c -0.021,0.006 -1.969,0.652 -3.005,-0.322 -0.068,-0.063 -0.132,-0.136 -0.192,-0.215 h -0.286 l -10e-4,-0.003 h -0.998 v 0.003 h -0.084 -0.14 l 0.015,0.054 c 0,0.002 0.012,0.033 0.027,0.074 0.01,0.025 0.02,0.052 0.035,0.086 0.218,0.52 1.146,2.181 4.114,1.806 0.372,0.613 2.082,3.117 5.095,3.117 h 0.002 c 0.107,0.009 2.666,0.224 5.877,-2.396 0.82,0.423 5.186,2.58 9.003,2.58 0.352,0 0.7,-0.018 1.039,-0.057 0.095,0.001 6.107,0.047 8.688,-5.786 0.017,-0.033 1.588,-3.224 -0.674,-5.692 0.529,-0.505 2.099,-2.2 1.966,-4.432 z"
             id="path1353" />
          <path
             style="fill:#ffffff"
             d="m 59.076,66.822 -0.17,-0.094 c -2.991,-2.371 -5.762,-3.573 -8.237,-3.573 -0.448,0 -0.892,0.04 -1.32,0.118 -3.083,0.565 -4.564,3.019 -4.579,3.045 L 44.277,67.15 44.132,66.194 C 43.751,63.705 42.5,63.541 42.475,63.537 42.389,63.519 42.296,63.51 42.201,63.51 c -1.361,0 -3.165,1.808 -3.184,1.828 l -0.425,0.43 -0.154,-0.582 c -0.958,-3.564 -3.37,-3.638 -3.46,-3.64 -3.266,0.265 -4.529,1.755 -4.545,1.774 -1.63,1.837 0.114,3.791 0.318,4.007 l 0.343,0.357 -0.456,0.198 c -4.582,1.988 -4.318,3.671 -4.313,3.698 0.157,1.208 2.823,2.434 4.467,2.922 l 0.468,0.14 -0.289,0.395 c -2.63,3.584 -1.843,5.355 -1.655,5.671 l 0.057,0.157 h 24.171 c 3.052,0 5.535,-2.494 5.535,-5.559 V 74.81 Z"
             id="path1355" />
          <path
             style="fill:#ffffff"
             d="M 53.541,48.944 H 24.419 c -3.052,0 -5.535,2.486 -5.535,5.543 v 20.84 c 0,3.056 2.483,5.543 5.535,5.543 h 3.247 l -0.023,-0.053 c -0.726,-2.08 0.531,-4.463 1.058,-5.326 -2.571,-1.065 -3.906,-2.336 -3.969,-3.78 -0.095,-2.228 2.856,-4.043 3.935,-4.63 -0.585,-1.283 -0.667,-2.472 -0.242,-3.538 0.781,-1.972 2.96,-2.76 3.053,-2.792 1.091,-0.504 2.142,-0.761 3.114,-0.761 0.668,0 1.308,0.123 1.901,0.365 1.623,0.659 2.497,2.031 2.846,2.714 1.058,-0.695 2.034,-1.047 2.903,-1.047 0.319,0 0.627,0.048 0.916,0.142 0.975,0.318 1.534,1.083 1.811,1.599 1.56,-1.38 3.407,-2.079 5.495,-2.079 3.895,0 7.557,2.463 8.587,3.218 l 0.025,0.018 V 54.486 c 10e-4,-3.056 -2.483,-5.542 -5.535,-5.542 z"
             id="path1357" />
        </g>
      </g>
    </g>
    <g
       id="g1397"
       style="fill:#ffffff"
       transform="matrix(1.7188204,0,0,1.7188204,281.47782,207.91152)">
      <g
         id="g1395"
         style="fill:#ffffff">
        <path
           style="fill:#ffffff"
           d="m 72.249,89.328 c -0.138,0 -0.267,-0.017 -0.387,-0.05 -0.119,-0.033 -0.221,-0.08 -0.305,-0.139 -0.084,-0.059 -0.15,-0.128 -0.198,-0.207 -0.048,-0.08 -0.072,-0.168 -0.072,-0.265 0,-0.101 0.025,-0.193 0.075,-0.279 0.05,-0.086 0.119,-0.162 0.205,-0.227 0.086,-0.065 0.188,-0.115 0.305,-0.151 0.117,-0.035 0.243,-0.054 0.377,-0.054 0.134,0 0.259,0.019 0.375,0.054 0.115,0.036 0.216,0.086 0.302,0.151 0.086,0.064 0.154,0.141 0.205,0.227 0.051,0.086 0.075,0.179 0.075,0.279 0,0.097 -0.024,0.185 -0.072,0.265 -0.048,0.079 -0.114,0.148 -0.198,0.207 -0.084,0.059 -0.185,0.105 -0.302,0.139 -0.117,0.034 -0.247,0.05 -0.385,0.05 z m -0.566,1.113 h 1.157 v 6.371 h -1.157 z m 0,0 h 1.157 v 6.371 h -1.157 z"
           id="path1365" />
        <path
           style="fill:#ffffff"
           d="m 79.788,92.567 h -1.101 c -0.067,-0.396 -0.22,-0.726 -0.459,-0.988 -0.239,-0.264 -0.623,-0.396 -1.151,-0.396 -0.721,0 -1.237,0.336 -1.547,1.008 -0.201,0.433 -0.302,0.968 -0.302,1.605 0,0.643 0.143,1.184 0.428,1.622 0.285,0.438 0.733,0.658 1.346,0.658 0.47,0 0.842,-0.137 1.116,-0.409 0.275,-0.272 0.464,-0.646 0.569,-1.119 h 1.101 c -0.126,0.847 -0.44,1.466 -0.943,1.858 -0.503,0.392 -1.147,0.588 -1.931,0.588 -0.88,0 -1.583,-0.306 -2.107,-0.915 -0.524,-0.61 -0.786,-1.374 -0.786,-2.293 0,-1.123 0.287,-1.997 0.861,-2.622 0.575,-0.625 1.306,-0.938 2.195,-0.938 0.759,0 1.376,0.176 1.852,0.525 0.476,0.353 0.762,0.957 0.859,1.816 z"
           id="path1367" />
        <path
           style="fill:#ffffff"
           d="m 80.912,90.441 h 1.101 v 0.85 c 0.227,-0.29 0.474,-0.514 0.742,-0.673 0.381,-0.239 0.83,-0.358 1.346,-0.358 0.763,0 1.411,0.277 1.943,0.833 0.532,0.556 0.799,1.349 0.799,2.38 0,1.393 -0.384,2.388 -1.151,2.987 -0.487,0.378 -1.053,0.566 -1.698,0.566 -0.507,0 -0.933,-0.104 -1.277,-0.314 -0.201,-0.122 -0.425,-0.327 -0.673,-0.616 v 3.271 h -1.132 z m 4.773,3.132 c 0,-0.507 -0.078,-0.945 -0.233,-1.314 -0.293,-0.704 -0.83,-1.056 -1.61,-1.056 -0.784,0 -1.321,0.373 -1.61,1.119 C 82.077,92.721 82,93.226 82,93.838 c 0,0.495 0.078,0.914 0.233,1.258 0.293,0.662 0.83,0.993 1.61,0.993 0.528,0 0.967,-0.209 1.317,-0.629 0.35,-0.419 0.525,-1.048 0.525,-1.887 z"
           id="path1369" />
        <path
           style="fill:#ffffff"
           d="m 93.48,92.567 h -1.1 c -0.067,-0.396 -0.22,-0.726 -0.459,-0.988 -0.239,-0.264 -0.623,-0.396 -1.151,-0.396 -0.721,0 -1.237,0.336 -1.547,1.008 -0.201,0.433 -0.302,0.968 -0.302,1.605 0,0.643 0.143,1.184 0.428,1.622 0.285,0.438 0.733,0.658 1.346,0.658 0.47,0 0.842,-0.137 1.116,-0.409 0.275,-0.272 0.464,-0.646 0.569,-1.119 h 1.101 c -0.126,0.847 -0.44,1.466 -0.943,1.858 -0.503,0.392 -1.147,0.588 -1.931,0.588 -0.88,0 -1.583,-0.306 -2.107,-0.915 -0.524,-0.61 -0.786,-1.374 -0.786,-2.293 0,-1.123 0.287,-1.997 0.861,-2.622 0.575,-0.625 1.306,-0.938 2.195,-0.938 0.759,0 1.376,0.176 1.852,0.525 0.475,0.353 0.761,0.957 0.858,1.816 z"
           id="path1371" />
        <path
           style="fill:#ffffff"
           d="m 95.365,96.844 c -0.139,0 -0.268,-0.016 -0.387,-0.047 -0.119,-0.031 -0.221,-0.077 -0.305,-0.139 -0.084,-0.061 -0.15,-0.131 -0.198,-0.211 -0.048,-0.079 -0.072,-0.167 -0.072,-0.264 0,-0.097 0.025,-0.188 0.075,-0.276 0.05,-0.089 0.119,-0.165 0.205,-0.229 0.086,-0.065 0.188,-0.115 0.305,-0.151 0.117,-0.035 0.243,-0.054 0.377,-0.054 0.134,0 0.259,0.019 0.374,0.054 0.115,0.036 0.216,0.086 0.302,0.151 0.086,0.064 0.154,0.141 0.205,0.229 0.05,0.088 0.075,0.18 0.075,0.276 0,0.096 -0.024,0.185 -0.072,0.264 -0.048,0.08 -0.114,0.15 -0.198,0.211 -0.083,0.062 -0.185,0.107 -0.302,0.139 -0.117,0.032 -0.245,0.047 -0.384,0.047 z"
           id="path1373" />
        <path
           style="fill:#ffffff"
           d="m 98.187,88.461 c 0.264,-0.365 0.773,-0.548 1.528,-0.548 0.071,0 0.145,0.002 0.22,0.004 0.075,0.002 0.161,0.007 0.258,0.016 v 0.98 c -0.118,-0.008 -0.203,-0.014 -0.255,-0.016 -0.052,-0.002 -0.102,-0.003 -0.148,-0.003 -0.344,0 -0.549,0.085 -0.616,0.255 -0.067,0.17 -0.101,0.601 -0.101,1.292 h 1.12 v 0.85 h -1.132 v 5.521 h -1.119 v -5.521 h -0.937 v -0.85 h 0.937 v -1 c 0.016,-0.448 0.098,-0.775 0.245,-0.98 z"
           id="path1375" />
        <path
           style="fill:#ffffff"
           d="m 106.905,93.48 c 0,1.031 -0.264,1.884 -0.792,2.557 -0.528,0.673 -1.348,1.009 -2.459,1.009 -0.927,0 -1.663,-0.298 -2.208,-0.893 -0.545,-0.596 -0.817,-1.395 -0.817,-2.396 0,-1.077 0.287,-1.935 0.861,-2.572 0.575,-0.637 1.346,-0.956 2.314,-0.956 0.868,0 1.602,0.275 2.201,0.824 0.599,0.549 0.9,1.357 0.9,2.427 z m -1.182,0.031 c 0,-0.6 -0.101,-1.086 -0.303,-1.459 -0.319,-0.591 -0.869,-0.887 -1.65,-0.887 -0.693,0 -1.197,0.251 -1.512,0.755 -0.315,0.503 -0.472,1.108 -0.472,1.817 0,0.679 0.157,1.246 0.472,1.701 0.315,0.455 0.815,0.683 1.5,0.683 0.751,0 1.267,-0.271 1.546,-0.812 0.279,-0.541 0.419,-1.14 0.419,-1.798 z"
           id="path1377" />
        <path
           style="fill:#ffffff"
           d="m 109.307,90.417 v 4.24 c 0,0.326 0.054,0.593 0.163,0.798 0.202,0.385 0.577,0.577 1.126,0.577 0.788,0 1.325,-0.335 1.61,-1.005 0.155,-0.36 0.233,-0.852 0.233,-1.477 v -3.134 h 1.132 v 6.396 h -1.069 l 0.012,-0.943 c -0.146,0.243 -0.329,0.448 -0.547,0.616 -0.432,0.336 -0.956,0.503 -1.572,0.503 -0.96,0 -1.614,-0.306 -1.962,-0.918 -0.188,-0.327 -0.283,-0.763 -0.283,-1.308 v -4.346 h 1.157 z"
           id="path1379" />
        <path
           style="fill:#ffffff"
           d="m 115.201,90.417 h 1.076 v 0.905 c 0.319,-0.373 0.657,-0.642 1.014,-0.805 0.357,-0.164 0.754,-0.246 1.19,-0.246 0.958,0 1.604,0.317 1.94,0.95 0.185,0.344 0.277,0.839 0.277,1.484 v 4.106 h -1.157 V 92.78 c 0,-0.39 -0.061,-0.704 -0.182,-0.943 -0.201,-0.398 -0.566,-0.598 -1.094,-0.598 -0.269,0 -0.489,0.025 -0.661,0.075 -0.31,0.089 -0.583,0.265 -0.817,0.528 -0.188,0.21 -0.312,0.427 -0.368,0.651 -0.056,0.225 -0.084,0.546 -0.084,0.965 v 3.353 h -1.132 v -6.394 z"
           id="path1381" />
        <path
           style="fill:#ffffff"
           d="m 126.07,90.611 c 0.201,0.117 0.43,0.327 0.686,0.629 v -3.232 h 1.088 v 8.805 h -1.019 V 95.92 c -0.264,0.397 -0.577,0.684 -0.937,0.858 -0.361,0.174 -0.774,0.261 -1.239,0.261 -0.75,0 -1.4,-0.3 -1.949,-0.899 -0.549,-0.6 -0.824,-1.396 -0.824,-2.39 0,-0.936 0.25,-1.743 0.751,-2.425 0.501,-0.682 1.217,-1.021 2.148,-1.021 0.515,0 0.947,0.102 1.295,0.307 z m -1.069,5.491 c 0.524,0 0.955,-0.214 1.292,-0.642 0.338,-0.428 0.506,-1.041 0.506,-1.843 0,-0.809 -0.174,-1.407 -0.522,-1.795 -0.348,-0.388 -0.778,-0.582 -1.289,-0.582 -0.57,0 -1.033,0.207 -1.387,0.619 -0.354,0.413 -0.532,1.022 -0.532,1.827 0,0.688 0.153,1.263 0.459,1.724 0.307,0.461 0.798,0.692 1.473,0.692 z"
           id="path1383" />
        <path
           style="fill:#ffffff"
           d="m 133.025,92.933 c 0.26,-0.029 0.434,-0.133 0.522,-0.309 0.05,-0.097 0.076,-0.232 0.076,-0.409 0,-0.368 -0.137,-0.636 -0.412,-0.802 -0.274,-0.165 -0.667,-0.248 -1.179,-0.248 -0.591,0 -1.01,0.15 -1.258,0.453 -0.138,0.167 -0.229,0.417 -0.271,0.748 h -1.056 c 0.021,-0.788 0.29,-1.337 0.808,-1.645 0.518,-0.309 1.118,-0.462 1.802,-0.462 0.792,0 1.436,0.143 1.931,0.427 0.491,0.29 0.736,0.736 0.736,1.34 v 3.686 c 0,0.113 0.024,0.203 0.072,0.271 0.048,0.068 0.15,0.101 0.305,0.101 0.05,0 0.107,-0.003 0.169,-0.01 0.063,-0.006 0.13,-0.016 0.202,-0.028 v 0.799 c -0.176,0.046 -0.311,0.075 -0.403,0.088 -0.092,0.013 -0.218,0.02 -0.377,0.02 -0.39,0 -0.673,-0.133 -0.849,-0.396 -0.092,-0.139 -0.157,-0.335 -0.195,-0.591 -0.23,0.289 -0.562,0.538 -0.994,0.748 -0.432,0.21 -0.908,0.314 -1.427,0.314 -0.625,0 -1.135,-0.181 -1.532,-0.541 -0.396,-0.36 -0.594,-0.812 -0.594,-1.352 0,-0.592 0.195,-1.051 0.585,-1.378 0.39,-0.327 0.901,-0.528 1.535,-0.604 z m -1.535,3.181 c 0.398,0 0.784,-0.088 1.157,-0.264 0.629,-0.29 0.943,-0.766 0.943,-1.428 v -0.868 c -0.138,0.084 -0.316,0.154 -0.534,0.211 -0.218,0.057 -0.432,0.098 -0.642,0.122 l -0.686,0.082 c -0.411,0.051 -0.719,0.132 -0.924,0.245 -0.348,0.185 -0.522,0.482 -0.522,0.894 0,0.311 0.119,0.556 0.358,0.735 0.24,0.181 0.523,0.271 0.85,0.271 z"
           id="path1385" />
        <path
           style="fill:#ffffff"
           d="m 136.62,88.631 h 1.145 v 1.786 h 1.075 v 0.88 h -1.075 v 4.171 c 0,0.223 0.08,0.373 0.239,0.453 0.088,0.042 0.235,0.062 0.44,0.062 0.055,0 0.113,-0.001 0.176,-0.003 0.062,-0.002 0.136,-0.008 0.22,-0.016 v 0.848 c -0.13,0.038 -0.265,0.064 -0.405,0.079 -0.141,0.014 -0.292,0.021 -0.456,0.021 -0.528,0 -0.887,-0.128 -1.076,-0.383 -0.188,-0.256 -0.283,-0.589 -0.283,-0.999 v -4.234 h -0.912 v -0.88 h 0.912 z"
           id="path1387" />
        <path
           style="fill:#ffffff"
           d="m 140.413,89.328 c -0.138,0 -0.267,-0.017 -0.387,-0.05 -0.119,-0.033 -0.221,-0.08 -0.305,-0.139 -0.084,-0.059 -0.15,-0.128 -0.198,-0.207 -0.048,-0.08 -0.072,-0.168 -0.072,-0.265 0,-0.101 0.025,-0.193 0.075,-0.279 0.05,-0.086 0.119,-0.162 0.205,-0.227 0.086,-0.065 0.188,-0.115 0.305,-0.151 0.117,-0.035 0.243,-0.054 0.377,-0.054 0.134,0 0.259,0.019 0.375,0.054 0.115,0.036 0.216,0.086 0.302,0.151 0.086,0.064 0.154,0.141 0.205,0.227 0.051,0.086 0.075,0.179 0.075,0.279 0,0.097 -0.024,0.185 -0.072,0.265 -0.048,0.079 -0.114,0.148 -0.198,0.207 -0.084,0.059 -0.185,0.105 -0.302,0.139 -0.117,0.034 -0.246,0.05 -0.385,0.05 z m -0.566,1.113 h 1.157 v 6.371 h -1.157 z m 0,0 h 1.157 v 6.371 h -1.157 z"
           id="path1389" />
        <path
           style="fill:#ffffff"
           d="m 148.462,93.48 c 0,1.031 -0.264,1.884 -0.792,2.557 -0.528,0.673 -1.348,1.009 -2.459,1.009 -0.927,0 -1.663,-0.298 -2.208,-0.893 -0.545,-0.596 -0.817,-1.395 -0.817,-2.396 0,-1.077 0.287,-1.935 0.861,-2.572 0.575,-0.637 1.346,-0.956 2.314,-0.956 0.868,0 1.602,0.275 2.201,0.824 0.599,0.549 0.9,1.357 0.9,2.427 z m -1.183,0.031 c 0,-0.6 -0.101,-1.086 -0.303,-1.459 -0.319,-0.591 -0.869,-0.887 -1.65,-0.887 -0.693,0 -1.197,0.251 -1.512,0.755 -0.315,0.503 -0.472,1.108 -0.472,1.817 0,0.679 0.157,1.246 0.472,1.701 0.315,0.455 0.815,0.683 1.5,0.683 0.751,0 1.267,-0.271 1.546,-0.812 0.279,-0.541 0.419,-1.14 0.419,-1.798 z"
           id="path1391" />
        <path
           style="fill:#ffffff"
           d="m 149.743,90.417 h 1.076 v 0.905 c 0.319,-0.373 0.657,-0.642 1.014,-0.805 0.357,-0.164 0.754,-0.246 1.19,-0.246 0.958,0 1.604,0.317 1.94,0.95 0.185,0.344 0.277,0.839 0.277,1.484 v 4.106 h -1.157 V 92.78 c 0,-0.39 -0.061,-0.704 -0.182,-0.943 -0.201,-0.398 -0.566,-0.598 -1.094,-0.598 -0.269,0 -0.489,0.025 -0.661,0.075 -0.31,0.089 -0.583,0.265 -0.817,0.528 -0.188,0.21 -0.312,0.427 -0.368,0.651 -0.056,0.225 -0.084,0.546 -0.084,0.965 v 3.353 h -1.132 v -6.394 z"
           id="path1393" />
      </g>
    </g>
  </g>
</svg>
