<?xml version="1.0" encoding="iso-8859-1"?>
<!-- Generator: Adobe Illustrator 19.0.0, SVG Export Plug-In . SVG Version: 6.00 Build 0)  -->
<svg version="1.1" id="Capa_1" xmlns="http://www.w3.org/2000/svg" xmlns:xlink="http://www.w3.org/1999/xlink" x="0px" y="0px"
	 viewBox="0 0 512 512" style="enable-background:new 0 0 512 512;" xml:space="preserve">
<path style="fill:#17ACE8;" d="M256,0C115.3,0,0,115.3,0,256s115.3,256,256,256s256-115.3,256-256S396.7,0,256,0z"/>
<path style="fill:#1689FC;" d="M512,256c0,140.7-115.3,256-256,256V0C396.7,0,512,115.3,512,256z"/>
<path style="fill:#CAE8F9;" d="M256,436c-16.569,0-30-13.431-30-30s13.431-30,30-30s30,13.431,30,30S272.569,436,256,436z
	 M309.159,238.598C300.517,244.955,286,258.52,286,278.104V286c0,16.567-13.433,30-30,30s-30-13.433-30-30v-7.896
	c0-33.618,17.373-65.654,47.666-87.876C281.503,184.472,286,175.653,286,166c0-16.538-13.462-30-30-30s-30,13.462-30,30
	c0,16.567-13.433,30-30,30s-30-13.433-30-30c0-49.629,40.371-90,90-90s90,40.371,90,90C346,194.535,332.23,221.679,309.159,238.598z
	"/>
<g>
	<path style="fill:#B7E0F6;" d="M286,166c0,9.653-4.497,18.472-12.334,24.229c-6.614,4.852-12.33,10.349-17.666,16.051V316
		c16.567,0,30-13.433,30-30v-7.896c0-19.585,14.517-33.149,23.159-39.507C332.23,221.679,346,194.535,346,166
		c0-49.629-40.371-90-90-90v60C272.538,136,286,149.462,286,166z"/>
	<path style="fill:#B7E0F6;" d="M286,406c0-16.569-13.431-30-30-30v60C272.569,436,286,422.569,286,406z"/>
</g>
<g>
</g>
<g>
</g>
<g>
</g>
<g>
</g>
<g>
</g>
<g>
</g>
<g>
</g>
<g>
</g>
<g>
</g>
<g>
</g>
<g>
</g>
<g>
</g>
<g>
</g>
<g>
</g>
<g>
</g>
</svg>
