<?xml version="1.0" encoding="UTF-8" standalone="no"?>
<svg
   xmlns:dc="http://purl.org/dc/elements/1.1/"
   xmlns:cc="http://creativecommons.org/ns#"
   xmlns:rdf="http://www.w3.org/1999/02/22-rdf-syntax-ns#"
   xmlns:svg="http://www.w3.org/2000/svg"
   xmlns="http://www.w3.org/2000/svg"
   xmlns:sodipodi="http://sodipodi.sourceforge.net/DTD/sodipodi-0.dtd"
   xmlns:inkscape="http://www.inkscape.org/namespaces/inkscape"
   version="1.1"
   id="svg36"
   width="1318.4122"
   height="170.28006"
   viewBox="0 0 1318.4122 170.28006"
   sodipodi:docname="titulo.svg"
   inkscape:version="1.0.1 (3bc2e813f5, 2020-09-07)"
   inkscape:export-filename="/home/leonardo/Dropbox/Documents/Divulgacao/Maratona2020/logonovo-horizontal-branco-1afase.png"
   inkscape:export-xdpi="37.689632"
   inkscape:export-ydpi="37.689632">
  <metadata
     id="metadata42">
    <rdf:RDF>
      <cc:Work
         rdf:about="">
        <dc:format>image/svg+xml</dc:format>
        <dc:type
           rdf:resource="http://purl.org/dc/dcmitype/StillImage" />
        <dc:title></dc:title>
      </cc:Work>
    </rdf:RDF>
  </metadata>
  <defs
     id="defs40">
    <clipPath
       clipPathUnits="userSpaceOnUse"
       id="clipPath93">
      <rect
         style="fill:#1a1a1a;stroke:#ffffff;stroke-width:2"
         id="rect95"
         width="735.56781"
         height="509.89124"
         x="-47.989845"
         y="-81.880814"
         clip-path="none" />
    </clipPath>
    <clipPath
       clipPathUnits="userSpaceOnUse"
       id="clipPath99">
      <rect
         style="fill:#1a1a1a;stroke:#ffffff;stroke-width:2"
         id="rect101"
         width="720.38403"
         height="455.3497"
         x="-26.168011"
         y="-44.331089" />
    </clipPath>
    <clipPath
       clipPathUnits="userSpaceOnUse"
       id="clipPath130">
      <rect
         style="fill:#1a1a1a;stroke:#ffffff;stroke-width:2"
         id="rect132"
         width="640.40228"
         height="151.45563"
         x="686.02441"
         y="410.77087" />
    </clipPath>
    <clipPath
       clipPathUnits="userSpaceOnUse"
       id="clipPath130-3">
      <rect
         style="fill:#1a1a1a;stroke:#ffffff;stroke-width:2"
         id="rect132-6"
         width="640.40228"
         height="151.45563"
         x="686.02441"
         y="410.77087" />
    </clipPath>
    <clipPath
       clipPathUnits="userSpaceOnUse"
       id="clipPath43">
      <rect
         style="fill:#1a1a1a;stroke:#ffffff;stroke-width:2"
         id="rect45"
         width="669.32666"
         height="113.17222"
         x="683.63568"
         y="489.50595" />
    </clipPath>
  </defs>
  <sodipodi:namedview
     pagecolor="#000000"
     bordercolor="#666666"
     borderopacity="1"
     objecttolerance="10"
     gridtolerance="10"
     guidetolerance="10"
     inkscape:pageopacity="0"
     inkscape:pageshadow="2"
     inkscape:window-width="1920"
     inkscape:window-height="1008"
     id="namedview38"
     showgrid="false"
     inkscape:zoom="0.70710678"
     inkscape:cx="903.39151"
     inkscape:cy="-246.34478"
     inkscape:window-x="0"
     inkscape:window-y="42"
     inkscape:window-maximized="1"
     inkscape:current-layer="g44"
     inkscape:document-rotation="0"
     fit-margin-top="10"
     fit-margin-left="18"
     fit-margin-right="18"
     fit-margin-bottom="10"
     inkscape:pagecheckerboard="true" />
  <g
     inkscape:groupmode="layer"
     inkscape:label="Image"
     id="g44"
     transform="translate(-197.85759,-213.25996)">
    <path
       style="fill:#ffffff;stroke-width:0.32"
       d="m 522.7675,570.12639 c -4.3523,-0.81836 -5.9806,-1.1983 -6.32,-1.47468 -0.475,-0.38672 -0.55,-3.95687 -0.089,-4.2417 0.171,-0.1057 1.8343,0.10179 3.6962,0.46112 4.6645,0.90016 6.3656,0.86963 7.3674,-0.13216 1.8832,-1.88323 0.2221,-3.69456 -3.3881,-3.69456 -1.089,0 -1.5729,-0.14304 -1.7122,-0.50618 -0.1068,-0.2784 -0.1942,-1.98889 -0.1942,-3.80108 v -3.29495 l -2.16,-0.54195 c -6.7319,-1.68909 -11.5401,-7.89043 -12.5862,-16.23312 -1.0748,-8.57168 2.7291,-17.38192 8.9323,-20.68819 3.616,-1.92733 4.966,-2.11542 15.2539,-2.12547 l 9.28,-0.009 0.089,4.24 0.089,4.24 -6.0093,0.01 c -3.3051,0.005 -7.0535,0.1455 -8.3297,0.31126 -6.6395,0.8624 -8.941,4.01779 -8.6622,11.876 0.099,2.7935 0.2833,3.98237 0.7897,5.0991 0.9159,2.01956 2.4296,3.6466 4.2069,4.52202 1.4238,0.70125 1.9514,0.75046 9.666,0.90173 l 8.16,0.16 v 4.16 4.16 l -7.2,0.16 -7.2,0.16 -0.1022,1.24742 c -0.1151,1.40621 0.2398,1.77927 1.7022,1.78947 3.1198,0.0218 6.0062,2.22528 6.4058,4.8905 0.5197,3.46557 -0.7825,6.26458 -3.5342,7.59667 -1.1632,0.56307 -2.1712,0.74941 -4.4288,0.81869 -1.6076,0.0493 -3.2828,0.0221 -3.7228,-0.0608 z m -246.19917,-2.53088 c -0.2842,-0.7406 -0.24091,-6.6327 0.0521,-7.09363 0.17782,-0.27974 2.90743,-0.40877 10.1551,-0.48 9.34176,-0.0919 9.98553,-0.13609 11.1919,-0.76867 1.56169,-0.81894 2.41414,-2.19389 2.49736,-4.0281 l 0.0626,-1.3807 -7.36,-0.19856 c -4.88271,-0.13174 -7.9085,-0.35392 -8.98958,-0.66006 -5.23914,-1.48365 -9.72474,-6.83088 -11.14394,-13.28455 -0.66115,-3.00653 -0.6589,-8.72361 0.005,-11.71366 1.10672,-4.98736 4.64159,-10.12467 8.34997,-12.1352 3.42474,-1.85674 4.60466,-1.9913 17.53894,-2 l 11.84,-0.008 v 21.6 c 0,21.38397 -0.007,21.62243 -0.70624,23.84435 -1.29664,4.12064 -3.33091,6.38896 -7.08742,7.90278 -1.75145,0.70583 -2.17703,0.73098 -14.00547,0.82768 -11.05559,0.0904 -12.21796,0.0507 -12.4,-0.42371 z m 23.95913,-33.7511 v -11.36 h -5.28 c -5.15702,0 -5.32336,0.0224 -7.14166,0.91415 -2.2894,1.12284 -3.80316,3.06732 -4.56308,5.8614 -0.78089,2.8712 -0.52366,8.57943 0.49145,10.90573 1.6878,3.86787 4.90779,5.19818 12.33329,5.0953 l 4.16,-0.0576 v -11.36 z m -57.28,20.02755 c -8.4758,-1.94829 -13.76431,-7.93945 -14.91628,-16.89817 -0.93403,-7.26378 1.07432,-13.84688 5.60042,-18.35741 3.7481,-3.7352 8.55957,-5.57197 14.59586,-5.57197 13.26509,0 21.53572,9.66439 20.12804,23.52 -0.84744,8.34115 -5.26608,14.16173 -12.66313,16.68086 -2.09736,0.71428 -3.18175,0.87056 -6.66491,0.96055 -2.75962,0.0713 -4.80633,-0.0411 -6.08,-0.33386 z m 9.84592,-9.24723 c 3.1984,-1.87437 4.70612,-4.91229 4.9543,-9.98234 0.2895,-5.91436 -1.47046,-9.93433 -5.1785,-11.82838 -1.66364,-0.84976 -2.21739,-0.96745 -4.48,-0.95225 -4.17208,0.0282 -6.615,1.63763 -8.47287,5.58265 -0.76396,1.62221 -0.82885,2.09824 -0.82885,6.08 0,5.11283 0.46793,6.84912 2.45391,9.10531 2.13244,2.42256 3.79458,3.07578 7.49557,2.94573 2.13085,-0.0749 2.84928,-0.24326 4.05644,-0.95072 z m 353.12112,9.18522 c -7.0527,-1.51434 -12.231,-6.46608 -14.2127,-13.59114 -0.4316,-1.55174 -0.5684,-3.18963 -0.5589,-6.6944 0.011,-4.14566 0.1033,-4.91539 0.8651,-7.22509 2.9224,-8.86057 10.5324,-13.69699 20.6995,-13.15526 8.9012,0.47434 15.1535,4.99347 17.7923,12.86035 1.1577,3.45162 1.4384,9.4088 0.6199,13.15997 -1.6672,7.6408 -7.0452,13.11389 -14.4214,14.67638 -2.7919,0.59139 -7.9547,0.57664 -10.7838,-0.0307 z m 9.8393,-9.10301 c 1.8684,-0.96195 3.3379,-2.76432 4.3474,-5.33219 0.6134,-1.56023 0.7274,-2.45242 0.7274,-5.69034 0,-3.25875 -0.1128,-4.13062 -0.7456,-5.76 -1.8889,-4.86365 -6.7426,-7.25341 -11.7175,-5.76918 -4.2812,1.27728 -6.6473,5.43792 -6.6473,11.68918 0,6.02682 2.04,9.70816 6.3343,11.4312 0.5519,0.22144 2.0898,0.36029 3.5443,0.32 2.0341,-0.0564 2.9001,-0.24147 4.157,-0.88867 z m -572.96633,8.48032 c -6.39825,-1.38551 -11.22095,-6.13783 -12.97216,-12.78285 -0.79235,-3.00662 -0.96266,-8.77165 -0.35449,-12 1.01047,-5.36393 4.3206,-10.38294 8.21759,-12.46 3.2354,-1.72445 4.62938,-1.97789 12.14906,-2.20877 l 6.88,-0.21123 0.17577,-7.04 c 0.0967,-3.872 0.20468,-7.07974 0.24,-7.12832 0.0353,-0.0486 2.26023,-0.0486 4.94423,0 l 4.88,0.0883 v 27.04 27.04 l -11.04,0.0566 c -8.46746,0.0434 -11.52468,-0.0484 -13.12,-0.39379 z m 14.00409,-19.42285 -0.0841,-11.28 -4.8,0.0353 c -5.80956,0.0426 -7.63296,0.57424 -9.71405,2.83193 -1.82588,1.98087 -2.41676,4.15651 -2.39346,8.8128 0.0328,6.55414 1.7934,9.44122 6.42254,10.53181 0.66273,0.15616 3.33081,0.29837 5.92906,0.31603 l 4.7241,0.0322 z m 30.79591,19.44474 c -3.96266,-0.80026 -7.32455,-2.60058 -9.48337,-5.07847 -1.54382,-1.77197 -3.21279,-5.31651 -3.79297,-8.05545 -0.61733,-2.91431 -0.61856,-9.85539 -0.002,-12.79082 1.02921,-4.90211 4.08742,-9.20685 7.99859,-11.25881 3.79436,-1.99066 5.03962,-2.1632 15.67999,-2.17268 l 9.6,-0.009 0.0893,4.04628 0.0893,4.0463 -8.72931,0.14573 c -9.83239,0.16416 -11.12713,0.40246 -12.58719,2.3167 -1.06655,1.39834 -1.7592,4.55603 -1.09194,4.97805 0.26514,0.16768 5.24907,0.29926 11.43938,0.30205 l 10.96956,0.005 -0.0896,4.08 -0.0896,4.08 -11.2,0.16 -11.19999,0.16 0.0269,1.34998 c 0.0341,1.71014 0.94941,3.76224 1.97916,4.43696 1.5692,1.02819 2.91806,1.18867 11.59396,1.37949 l 8.8,0.19357 v 4 4 l -8.96,0.0524 c -6.31608,0.037 -9.57377,-0.0716 -11.03999,-0.36765 z m 55.82731,0.0753 c -0.0839,-0.22 -0.11541,-12.424 -0.07,-27.12 l 0.0826,-26.72 h 16 c 15.5526,0 16.07508,0.0202 18.68502,0.71597 3.38096,0.90157 4.93045,1.8095 7.10693,4.16438 3.12805,3.38445 4.43526,7.16759 4.44332,12.8592 0.0106,7.44813 -2.72538,12.55869 -8.20373,15.32413 -3.37436,1.70339 -5.60782,1.99533 -16.83154,2.2001 l -10.16,0.18534 v 8.88928 c 0,4.88909 -0.0874,9.11702 -0.19424,9.39542 -0.1662,0.43316 -0.95263,0.50618 -5.45004,0.50618 -3.90993,0 -5.29488,-0.10243 -5.4084,-0.4 z m 28.89943,-28.8879 c 3.04305,-0.90368 4.80083,-3.16413 5.10976,-6.57104 0.38367,-4.2312 -1.32822,-7.10259 -4.87651,-8.17952 -1.6328,-0.49559 -3.11667,-0.58416 -9.92,-0.59213 l -8,-0.009 -0.0856,7.92 -0.0856,7.92 h 8.10751 c 6.33325,0 8.46705,-0.10678 9.75042,-0.4879 z m 23.95061,28.78985 c -0.25586,-0.66672 -0.25887,-38.32931 -0.003,-38.99577 0.17098,-0.44557 1.31319,-0.50618 9.54123,-0.50618 11.40627,0 13.57757,0.32365 15.81567,2.35744 1.75657,1.59619 2.09507,2.85431 2.2783,8.46765 0.0938,2.87382 0.0554,5.42982 -0.0853,5.68 -0.20048,0.35638 -1.14775,0.45491 -4.37383,0.45491 -2.26486,0 -4.3457,-0.0874 -4.6241,-0.19424 -0.41507,-0.15926 -0.50702,-0.7784 -0.51089,-3.44 -0.005,-3.76454 -0.34419,-4.68505 -1.92362,-5.22771 -1.56402,-0.53734 -5.26021,-0.53021 -5.7094,0.0109 -0.2482,0.29904 -0.38129,5.17194 -0.43918,16.08 l -0.083,15.65107 -4.84264,0.0881 c -4.20522,0.0765 -4.86862,0.0205 -5.04,-0.42618 z m 122.83282,0.10643 c -0.0859,-0.2246 -0.11882,-9.19238 -0.0732,-19.92838 l 0.083,-19.52 h 10.4 c 11.10926,0 11.72336,0.0717 14.18836,1.65677 0.8535,0.5488 1.4865,1.34438 2.074,2.60656 0.7827,1.6817 0.8543,2.20195 0.9642,7.0024 l 0.1186,5.18573 -0.7526,0.18675 c -0.4139,0.10272 -2.5526,0.14515 -4.7526,0.0943 l -4,-0.0925 -0.2246,-3.59225 c -0.1235,-1.97572 -0.3779,-3.87885 -0.5654,-4.22912 -0.4608,-0.86106 -2.4552,-1.34727 -5.0578,-1.23306 l -2.15216,0.0944 -0.16,16 -0.16,16 -4.88682,0.0884 c -3.7334,0.0675 -4.92371,-0.008 -5.043,-0.32 z m 39.87586,-0.1167 c -2.2375,-0.60157 -3.5402,-1.4233 -5.143,-3.24416 -1.7539,-1.99258 -2.4091,-4.21814 -2.3808,-8.08752 0.056,-7.60371 3.0858,-11.06541 10.6435,-12.15862 1.1738,-0.16979 5.6109,-0.31155 9.86,-0.31504 8.6861,-0.007 8.2969,0.11459 7.8187,-2.4448 -0.3667,-1.96288 -1.1703,-2.9961 -3.0811,-3.96154 -1.571,-0.79376 -1.6656,-0.80125 -12.1433,-0.96 l -10.56,-0.16 v -4 -4 l 12.64,0.0125 c 11.9868,0.0118 12.7433,0.0473 14.6394,0.68627 5.544,1.86836 8.2349,5.34704 9.0278,11.67085 0.3512,2.80051 0.4708,26.09824 0.1385,26.96426 -0.1734,0.45187 -1.7783,0.5039 -14.96,0.48512 -11.8728,-0.017 -15.1054,-0.11239 -16.4997,-0.48727 z m 20.934,-11.65172 v -4 h -7.52 c -6.9999,0 -7.5975,0.0453 -8.64,0.65514 -1.9593,1.14608 -2.4949,4.40892 -1.0221,6.22764 0.8601,1.06224 2.2222,1.22154 9.9821,1.16743 l 7.2,-0.0502 z m 19.5101,11.76838 c -0.086,-0.2246 -0.1188,-9.19238 -0.073,-19.92838 l 0.083,-19.52 h 21.6 c 23.2529,0 23.2985,0.003 26.813,1.69933 2.0123,0.97136 4.0214,3.04794 4.8746,5.03824 1.1562,2.69728 1.2977,4.9536 1.2035,19.18243 l -0.091,13.76 h -4.96 -4.96 l -0.16,-13.97702 c -0.1545,-13.50135 -0.1825,-14.00778 -0.8227,-14.88 -1.267,-1.72631 -2.4007,-2.0409 -7.0173,-1.94733 l -4.16,0.0843 -0.16,15.36 -0.16,15.36 h -4.96 -4.96 l -0.16,-15.36 -0.16,-15.36 h -5.76 -5.76 l -0.16,15.36 -0.16,15.36 -4.8868,0.0884 c -3.7334,0.0675 -4.9237,-0.008 -5.043,-0.32 z m 69.8486,0.0458 c -3.1774,-0.75306 -5.771,-2.85018 -7.0716,-5.71792 -0.9062,-1.99815 -1.137,-7.81533 -0.4094,-10.31815 1.0442,-3.59197 3.2462,-5.73798 7.216,-7.03235 1.886,-0.61494 3.0766,-0.70656 11.3863,-0.87625 l 9.28,-0.18951 -0.043,-1.66182 c -0.049,-1.91098 -0.8816,-3.50125 -2.2552,-4.30797 -1.6674,-0.9792 -4.5333,-1.23021 -14.0467,-1.23021 -8.228,0 -9.3702,-0.0606 -9.5412,-0.50617 -0.2933,-0.76436 -0.2234,-6.95245 0.084,-7.43738 0.2174,-0.34288 2.6385,-0.40099 12.7151,-0.30515 11.593,0.11024 12.5829,0.16416 14.4351,0.7864 5.4376,1.82678 8.0646,4.9383 9.049,10.71792 0.2192,1.28675 0.3116,6.80496 0.2536,15.14438 l -0.091,13.12 -14.88,0.0494 c -8.184,0.0272 -15.4206,-0.0787 -16.0813,-0.23526 z m 20.4013,-11.81418 v -4 l -6.3955,-0.087 c -7.5257,-0.1024 -9.3763,0.17325 -10.5532,1.57191 -0.6686,0.79459 -0.8113,1.29766 -0.8113,2.85964 0,2.11661 0.5704,3.00608 2.1518,3.3553 0.4885,0.10787 1.0322,0.24557 1.2082,0.30598 0.176,0.0605 3.488,0.0838 7.36,0.052 l 7.04,-0.0579 z m 63.5831,11.66118 c -0.9332,-0.25116 -1.99,-0.61356 -2.3483,-0.80534 -1.3345,-0.71424 -3.2288,-2.70298 -3.9726,-4.17088 -2.3999,-4.73603 -1.347,-12.85395 2.028,-15.6359 3.1235,-2.57469 6.5231,-3.20906 17.1974,-3.20906 8.6469,0 8.3683,0.0771 7.956,-2.20294 -0.2699,-1.49312 -0.8359,-2.58877 -1.7732,-3.43274 -1.5569,-1.40182 -2.4881,-1.51907 -13.5504,-1.70592 l -10.56,-0.1784 -0.093,-3.36 c -0.051,-1.848 -0.013,-3.684 0.086,-4.08 l 0.1794,-0.72 11.2739,0.003 c 6.2006,0 12.1791,0.14931 13.2856,0.32887 5.9378,0.96358 9.5944,4.01718 11.1872,9.3423 0.4143,1.3848 0.5283,4.11149 0.6374,15.24662 0.073,7.45811 0.047,13.90211 -0.058,14.32 l -0.1907,0.75978 -14.7939,-0.0211 c -11.7566,-0.0166 -15.1423,-0.11482 -16.4907,-0.47776 z m 20.8969,-11.66118 v -4 h -7.36 c -7.9112,0 -8.9547,0.17162 -9.9102,1.62995 -0.8111,1.23776 -0.9319,3.32141 -0.2672,4.60439 0.8811,1.70057 1.9659,1.892 10.3374,1.82409 l 7.2,-0.0584 z m -19.8976,-33.47462 c -0.3085,-0.80384 0.7798,-3.81453 1.9121,-5.28979 2.2989,-2.99527 4.1519,-3.40221 9.4034,-2.06512 4.6658,1.18796 5.5522,1.1326 6.8755,-0.42938 1.0257,-1.21069 1.7973,-1.48826 3.7066,-1.3335 1.0326,0.0837 -0.2,4.18371 -1.8645,6.20169 -2.1375,2.59143 -4.5517,3.02071 -9.4178,1.67469 -4.4701,-1.23648 -5.7474,-1.07706 -7.0186,0.87603 -0.4821,0.74071 -0.7964,0.88 -1.986,0.88 -1.0032,0 -1.4705,-0.14928 -1.6107,-0.51462 z M 297.9807,488.88172 c -1.22471,-0.25385 -3.38471,-1.01785 -4.8,-1.69776 -6.42699,-3.08748 -10.16423,-8.9727 -10.6382,-16.75257 -0.56846,-9.33088 3.25287,-16.5577 10.62496,-20.0936 3.66273,-1.7568 5.3866,-2.09587 10.56,-2.07719 7.12573,0.0259 11.2047,1.5464 15.36438,5.72775 3.79706,3.81683 5.59562,8.59373 5.59562,14.86166 0,9.5664 -4.88131,16.72512 -13.25491,19.43911 -2.1504,0.69696 -3.31152,0.85603 -6.90509,0.94604 -2.91472,0.073 -5.04436,-0.042 -6.54676,-0.35344 z m 8.98266,-8.63011 c 2.23469,-0.66361 4.05348,-2.34003 5.31066,-4.89491 1.03933,-2.11216 1.05344,-2.20086 1.05344,-6.62656 0,-4.17123 -0.0588,-4.61107 -0.83834,-6.27341 -1.02428,-2.18416 -2.77737,-3.99229 -4.73305,-4.88163 -2.0789,-0.94538 -6.3241,-0.94179 -8.34861,0.007 -4.12837,1.93485 -5.94126,5.79085 -5.69894,12.12154 0.12458,3.25449 0.23482,3.79017 1.17167,5.69318 1.20738,2.45254 3.0596,4.18931 5.15747,4.83603 1.9262,0.59376 4.96161,0.60199 6.9257,0.0186 z m -255.40857,8.0728 c -0.0839,-0.22 -0.11541,-12.424 -0.07,-27.12 l 0.0826,-26.72 h 8.32001 8.31999 l 6.72643,20.13549 c 3.69954,11.0745 6.8683,20.18275 7.0417,20.24054 0.17341,0.0578 3.35009,-9.00316 7.05931,-20.13545 l 6.74402,-20.24058 h 8.29427 8.29427 v 27.04 27.04 l -5.36706,0.0878 c -4.11854,0.0674 -5.40314,-0.007 -5.52213,-0.32 -0.0853,-0.22429 0.05,-9.19178 0.30051,-19.92778 0.25056,-10.736 0.33602,-19.64429 0.18991,-19.79622 -0.14611,-0.15191 -3.26615,8.77609 -6.93344,19.84 l -6.66778,20.11622 -5.985,0.087 c -5.45704,0.0793 -6.01062,0.037 -6.27554,-0.48 -0.1598,-0.31184 -3.19411,-9.27901 -6.7429,-19.92701 -3.54879,-10.648 -6.58496,-19.57184 -6.74705,-19.83072 -0.16209,-0.25891 -0.37221,-0.39325 -0.46692,-0.29853 -0.0947,0.0947 0.039,7.57853 0.2972,16.63072 0.25818,9.0522 0.47184,18.15053 0.47481,20.21853 l 0.005,3.76 h -5.61004 c -4.19332,0 -5.64858,-0.10102 -5.76264,-0.4 z m 78.41267,0.19248 c -4.61446,-0.96102 -7.32085,-3.1559 -8.59366,-6.96947 -0.77093,-2.30986 -0.70346,-6.90214 0.14159,-9.63811 0.5375,-1.74023 0.99242,-2.48698 2.32962,-3.82419 2.99381,-2.9938 6.34779,-3.66493 18.36245,-3.67437 l 8.08,-0.006 v -1.45027 c 0,-2.71232 -1.27395,-4.4969 -3.79703,-5.31904 -0.74997,-0.24438 -5.02673,-0.44496 -12.04297,-0.56483 l -10.88,-0.18586 v -4 -4 h 12.96 c 11.67047,0 13.15104,0.0585 14.88,0.58826 5.78969,1.77392 8.89514,5.38793 9.75849,11.35667 0.3341,2.30979 0.44677,26.55629 0.12727,27.3889 -0.17363,0.45248 -1.81115,0.50224 -15.44,0.46905 -8.38516,-0.0205 -15.53376,-0.0971 -15.88576,-0.1704 z m 20.256,-8.17648 c 0.44612,-0.44611 0.53484,-6.88259 0.10423,-7.56185 -0.21555,-0.34004 -1.81103,-0.40452 -7.9151,-0.32 -8.43864,0.11683 -9.22155,0.2838 -10.19971,2.17539 -1.23936,2.39664 -0.2197,5.22214 2.07964,5.76278 1.86583,0.43872 15.48405,0.39056 15.93094,-0.0563 z m 20.3741,7.99216 c -0.0858,-0.22448 -0.11873,-9.19216 -0.0731,-19.92816 l 0.083,-19.52 h 10.72 c 12.30471,0 13.54113,0.18583 15.71765,2.36237 1.81007,1.81005 2.23898,3.72397 2.13118,9.50989 l -0.0888,4.76774 -4.16,0.0923 c -5.96491,0.13235 -5.6,0.34797 -5.6,-3.3087 0,-3.98128 -0.4457,-5.10045 -2.22162,-5.57866 -0.72051,-0.19401 -2.3514,-0.31049 -3.6242,-0.25885 l -2.31418,0.0939 -0.16,16 -0.16,16 -5.04691,0.0882 c -3.86167,0.0675 -5.08357,-0.008 -5.20299,-0.32 z m 41.45766,-0.11958 c -5.88124,-1.58567 -8.73696,-6.55728 -7.755,-13.50093 0.77555,-5.4841 3.16034,-8.1776 8.45717,-9.5519 1.52746,-0.39632 4.27656,-0.56887 11.45007,-0.71866 l 9.44,-0.19709 -0.0427,-1.66182 c -0.0791,-3.08032 -1.68329,-4.61165 -5.48298,-5.23402 -1.00889,-0.16525 -6.17495,-0.30128 -11.48011,-0.3023 -8.49938,-0.003 -9.66885,-0.062 -9.84,-0.50803 -0.10684,-0.2784 -0.19424,-1.98877 -0.19424,-3.8008 0,-2.47588 0.11442,-3.38964 0.4604,-3.67677 0.75148,-0.62368 25.40576,-0.28384 27.6177,0.38067 4.11087,1.23501 6.84536,3.30925 8.36091,6.34214 1.57663,3.15511 1.65744,4.13671 1.56575,19.02093 l -0.0848,13.76 -15.36,0.0605 c -12.68063,0.0499 -15.66566,-0.0221 -17.11224,-0.41193 z m 21.59224,-11.64858 v -4 h -7.68 c -6.19946,0 -7.85952,0.0926 -8.61122,0.48 -1.40957,0.72656 -2.16241,1.95098 -2.18528,3.55411 -0.0546,3.8256 0.66961,4.08724 11.1165,4.01604 l 7.36,-0.0501 z m 31.54604,11.65517 c -3.47659,-0.9417 -5.97846,-3.33757 -7.12395,-6.82208 -0.6417,-1.952 -0.70867,-2.96694 -0.87837,-13.31309 l -0.18372,-11.2 -3.52,-0.16 -3.52,-0.16 -0.0935,-3.2 c -0.14398,-4.92502 -0.37614,-4.64 3.77965,-4.64 h 3.5139 v -6.69382 c 0,-3.6816 0.0874,-6.9216 0.19424,-7.2 0.16584,-0.43219 0.93764,-0.50618 5.28,-0.50618 h 5.08571 l 0.0133,1.2 c 0.007,0.66 0.006,3.72 -0.002,6.8 -0.009,3.08 0.0997,5.77629 0.2405,5.99175 0.18065,0.27651 1.80524,0.41772 5.52215,0.48 l 5.26631,0.0883 v 3.84 3.84 l -5.19297,0.0879 c -4.54229,0.0769 -5.22782,0.15705 -5.47116,0.64 -0.382,0.75811 -0.44813,11.20684 -0.10109,15.97302 0.45297,6.22093 1.37192,7.1671 7.23486,7.44922 l 3.53036,0.16985 v 3.84 3.84 l -5.92,0.0624 c -4.36908,0.0461 -6.37426,-0.0606 -7.65396,-0.40726 z m 66.04407,0.11299 c -0.0858,-0.22448 -0.11875,-9.19216 -0.0731,-19.92816 l 0.083,-19.52 10.72003,-0.0918 c 6.3062,-0.054 11.7966,0.0483 13.3348,0.24858 6.6279,0.86285 9.9371,3.29987 11.5192,8.48326 0.5313,1.74074 0.586,3.27936 0.586,16.48 v 14.56 h -5.12 -5.12 l -0.16,-13.6 c -0.178,-15.12937 -0.2162,-15.40451 -2.2948,-16.53875 -0.9206,-0.50234 -1.869,-0.58125 -6.9852,-0.58125 h -5.92 l -0.16,15.36 -0.16,15.36 -5.0469,0.0882 c -3.86171,0.0675 -5.08359,-0.008 -5.20302,-0.32 z m 51.82013,0.0636 c -3.3532,-0.66874 -6.0697,-2.7602 -7.443,-5.73044 -0.6701,-1.44931 -0.8474,-2.38985 -0.9511,-5.04627 -0.2771,-7.09024 2.1429,-10.66461 8.4269,-12.44675 1.5439,-0.43786 3.7695,-0.57165 11.437,-0.68762 l 9.52,-0.14396 v -1.41863 c 0,-2.68003 -1.2845,-4.4687 -3.7971,-5.28739 -0.7499,-0.24438 -5.0267,-0.44496 -12.0429,-0.56483 l -10.88,-0.18586 v -4 -4 l 11.675,-0.0841 c 13.1563,-0.0947 15.6401,0.14397 19.0709,1.83293 2.5525,1.2566 4.9636,3.83763 5.8847,6.29952 1.1246,3.00566 1.3183,6.04323 1.2215,19.15161 l -0.092,12.48 -15.36,0.0465 c -8.448,0.0256 -15.9494,-0.0711 -16.6697,-0.21472 z m 20.9258,-8.05575 c 0.4476,-0.44765 0.5341,-6.88365 0.1016,-7.56601 -0.2192,-0.34583 -1.7691,-0.40749 -7.9151,-0.31479 -6.5262,0.0985 -7.7937,0.19712 -8.6771,0.67546 -1.315,0.71197 -2.0054,2.04637 -2.0054,3.87561 0,1.84519 0.9778,3.05844 2.7381,3.39725 2.2033,0.4241 15.3225,0.36787 15.7579,-0.0675 z m 49.8042,7.96784 c -0.088,-0.22886 -0.1193,-2.35286 -0.07,-4.72 l 0.09,-4.30384 16,-0.18425 c 10.2362,-0.11789 16.3696,-0.31015 17.026,-0.53367 2.7797,-0.94656 3.8753,-2.26566 4.1582,-5.00633 0.2009,-1.94666 -0.2937,-3.82736 -1.3036,-4.957 -1.5037,-1.68179 -2.0725,-1.7608 -14.2806,-1.98345 -12.106,-0.22077 -13.1426,-0.34595 -16.8384,-2.03363 -3.2345,-1.47703 -5.573,-4.50842 -6.5583,-8.50167 -0.56,-2.26963 -0.5589,-8.29664 0,-10.56 1.4088,-5.68601 4.4855,-8.72093 10.5949,-10.45097 1.9068,-0.53997 3.5591,-0.58903 19.84,-0.58903 h 17.76 l 0.089,4.72 0.089,4.72 -14.3286,0.003 c -8.4601,0 -15.1804,0.14 -16.4085,0.3384 -4.122,0.66583 -6.08,2.74605 -6.08,6.45936 0,2.14906 0.3901,3.29523 1.5274,4.48733 1.5663,1.64176 3.0196,1.83136 14.1307,1.84365 11.2432,0.0125 13.7712,0.28454 17.0956,1.84019 4.6776,2.1889 6.6116,6.12778 6.6015,13.44438 -0.01,5.80007 -1.2038,9.27255 -4.1383,12.01748 -2.0818,1.94723 -4.9692,3.26265 -8.5216,3.88214 -3.8143,0.66515 -36.2228,0.72602 -36.4751,0.0685 z m 57.7798,-26.8033 v -27.21943 l 17.84,0.11645 c 15.5716,0.10166 18.0746,0.18518 19.6853,0.6568 5.2762,1.5448 8.5396,4.69622 9.8316,9.49411 0.2099,0.77975 0.3758,2.66835 0.3685,4.19687 -0.023,4.84444 -1.7992,8.57648 -5.2611,11.05449 -0.9154,0.6552 -1.7863,1.29543 -1.9353,1.42272 -0.1491,0.1273 0.5911,0.81693 1.6448,1.53248 2.4427,1.65885 4.0331,3.5224 4.9323,5.77959 1.0026,2.51654 1.0178,8.58998 0.028,11.2791 -1.7793,4.83514 -5.1197,7.33443 -11.2943,8.45024 -1.8135,0.32771 -6.4861,0.43645 -19.12,0.44486 l -16.72,0.0112 z m 31.0336,17.27094 c 3.0313,-0.65011 4.4864,-2.60266 4.4864,-6.02038 0,-2.25815 -0.3768,-3.39252 -1.5275,-4.59863 -1.5451,-1.61958 -3.0846,-1.83248 -13.2506,-1.83248 h -9.2219 v 6.18666 c 0,3.40269 0.096,6.28269 0.2133,6.4 0.3617,0.36173 17.5444,0.24137 19.3003,-0.13517 z m 1.3399,-22.9472 c 1.687,-0.83107 2.336,-1.6577 2.8706,-3.65648 0.7971,-2.98029 -0.3983,-5.93667 -2.9145,-7.20781 -1.3846,-0.69945 -1.7019,-0.72 -11.1174,-0.72 h -9.6922 v 6.02666 c 0,3.31469 0.1069,6.13366 0.2377,6.26438 0.1307,0.13075 4.4867,0.19075 9.68,0.13335 9.0967,-0.10058 9.4969,-0.1313 10.9358,-0.8401 z m 39.1465,32.42915 c -7.357,-1.16989 -13.3608,-6.08473 -15.9983,-13.09651 -1.5593,-4.1455 -1.8743,-6.28963 -1.8857,-12.83693 -0.015,-8.86793 1.2303,-14.20595 4.4429,-19.0384 1.9348,-2.9103 3.8405,-4.52336 7.3611,-6.23049 4.944,-2.39741 5.6678,-2.49348 19.9289,-2.64432 l 12.5689,-0.13296 -0.089,4.5831 -0.089,4.58307 -11.04,0.17031 c -10.675,0.16467 -11.1034,0.19548 -12.959,0.93257 -2.5497,1.01274 -4.9669,3.46323 -5.9206,6.00215 -1.2514,3.33152 -1.6863,6.34512 -1.7223,11.93497 -0.062,9.68035 1.6729,13.64711 6.903,15.77994 1.603,0.65369 2.3495,0.70205 13.2189,0.85645 l 11.52,0.16361 v 4.64 4.64 l -11.84,0.0503 c -8.2545,0.035 -12.6152,-0.073 -14.4,-0.35683 z m -289.14671,-79.3392 c -0.0733,-0.0692 -5.17333,-0.28864 -11.33333,-0.48774 -29.97939,-0.96902 -34.4686,-1.2256 -56.8,-3.24634 -21.73179,-1.96649 -46.49325,-4.60358 -66.08,-7.03753 -24.93745,-3.09885 -48.59974,-7.55651 -75.80431,-14.28058 -12.78302,-3.15952 -12.87363,-3.20179 -13.80438,-6.43977 -0.28809,-1.00224 -1.81411,-6.14228 -3.39115,-11.42228 -4.94023,-16.54009 -6.69773,-23.72992 -9.08321,-37.15888 -4.0986,-23.07295 -6.45173,-47.4218 -7.51115,-77.72111 -0.41445,-11.85327 -0.41716,-46.66959 -0.005,-57.92 1.60972,-43.88736 6.73172,-88.75216 13.75707,-120.50135 2.36164,-10.672772 5.91219,-23.987875 6.92592,-25.973235 0.24561,-0.481021 0.87823,-1.097808 1.40583,-1.370637 1.12372,-0.581101 14.6678,-3.74105 28.68226,-6.691818 52.63791,-11.082998 110.78357,-18.367367 167.46763,-20.980003 32.93235,-1.517891 72.73583,-1.636444 105.12003,-0.313096 44.231,1.807459 81.5244,5.440064 136.48,13.294015 17.9535,2.565821 25.7502,3.83863 46.72,7.6271 7.304,1.319565 15.512,2.77408 18.24,3.232256 12.5045,2.10018 14.4248,3.364832 16.7583,11.036765 1.8523,6.09007 6.8742,27.905721 9.613,41.760003 8.4765,42.87872 11.7896,77.05979 11.8173,121.92 0.016,26.45491 -1.1095,42.38251 -5.3837,76.16 -5.7209,45.2103 -8.7304,60.7911 -15.3555,79.49779 -2.917,8.23651 -3.1595,8.46217 -11.3694,10.58179 -21.3942,5.52355 -38.9978,8.61683 -68.16,11.97686 -49.7349,5.7304 -76.8363,8.10192 -140.96,12.33475 -31.7332,2.09476 -35.4863,2.24096 -57.62669,2.24506 -11.10267,0.003 -20.24667,-0.0528 -20.32001,-0.12202 z M 337.8075,387.4632 c 21.9651,-3.7344 39.1277,-17.29773 54.4853,-43.05879 4.8741,-8.1758 10.5463,-20.20752 17.3491,-36.8 4.5855,-11.1845 5.7988,-13.69996 7.8002,-16.17188 0.8603,-1.06254 4.4265,-4.39002 7.9248,-7.39439 8.5711,-7.36092 10.5708,-9.58871 13.4267,-14.95784 3.0521,-5.73805 4.3877,-11.87246 4.3971,-20.19588 0.01,-4.93455 -0.06,-5.5883 -0.7042,-7.03602 -1.329,-2.98625 -2.5131,-3.82905 -8.776,-6.24679 -4.7588,-1.8371 -5.983,-2.75465 -5.983,-4.48432 0,-0.50491 0.1467,-2.68986 0.326,-4.85544 0.1794,-2.16559 0.5989,-8.25743 0.9323,-13.53743 0.5534,-8.76351 0.568,-10.25526 0.1674,-17.12 -0.9772,-16.7467 -2.2664,-24.68229 -5.5898,-34.40679 -7.8277,-22.90433 -26.9499,-40.38727 -54.0759,-49.44031 -17.6514,-5.89098 -35.97198,-7.80633 -56.30766,-5.8868 -24.02367,2.26766 -45.40855,9.29488 -61.78511,20.30303 -10.04332,6.75101 -18.18008,16.14471 -22.85985,26.39115 -4.67071,10.22662 -7.35842,23.77758 -7.74318,39.03972 -0.25607,10.15758 0.20753,17.36365 1.99692,31.04 0.85296,6.5192 0.095,8.725 -4.09771,11.92432 -5.941,4.53343 -8.4131,8.26296 -9.21231,13.89815 -0.44778,3.15723 0.0865,6.95711 1.6285,11.58259 3.0824,9.2461 8.33691,17.55638 18.83904,29.79494 1.81235,2.112 3.75998,4.55999 4.32807,5.43999 0.56809,0.88 5.03348,9.304 9.92308,18.72 10.51053,20.24032 12.86701,24.64279 16.27205,30.4 5.55235,9.38788 12.36984,18.53239 18.12503,24.31168 10.60219,10.6466 24.55724,17.28826 40.33309,19.19584 3.61638,0.43728 15.30224,0.15952 18.88004,-0.44873 z M 111.28168,287.96087 c 6.46494,-1.64744 11.27454,-4.70114 16.33068,-10.36861 2.42896,-2.72264 7.8529,-10.82267 10.8665,-16.22784 7.2212,-12.95191 14.4603,-31.97476 18.04058,-47.40693 1.69752,-7.31685 0.87787,-6.51288 6.64116,-6.51417 11.47991,-0.003 19.72614,-1.50474 22.28912,-4.0603 1.06033,-1.05726 1.07896,-1.1227 0.91917,-3.22887 -0.37972,-5.00496 -4.72142,-18.19851 -12.39627,-37.66973 -8.24815,-20.92572 -8.78491,-22.67562 -8.78491,-28.64 0,-4.66988 0.61848,-7.4041 3.04015,-13.44 2.14764,-5.35292 5.1666,-14.78312 6.14665,-19.2 0.92674,-4.17662 0.99624,-13.557335 0.13039,-17.600003 -0.82619,-3.857482 -1.92892,-7.031367 -3.72454,-10.72 -1.87556,-3.852832 -3.86257,-6.848816 -8.5092,-12.830003 -1.92703,-2.480503 -4.2237,-5.502378 -5.1037,-6.71528 -2.04478,-2.818317 -3.65877,-3.771015 -6.38074,-3.766384 -1.08634,0.0019 -6.72446,0.948323 -12.81926,2.151981 -5.984,1.181779 -15.704,3.080595 -21.6,4.219593 -5.896,1.138999 -11.584,2.373069 -12.64,2.742381 -7.94907,2.779997 -12.13074,9.320467 -16.03351,25.077712 -6.25956,25.272613 -9.92564,56.847743 -12.48377,107.520003 -0.6482,12.83987 -0.98075,58.61337 -0.48715,67.05326 0.44074,7.53611 1.8835,22.22693 2.31483,23.57074 0.39577,1.23303 2.0773,2.77875 3.54216,3.25608 1.65511,0.53932 15.16197,3.185 18.02744,3.53115 3.85925,0.46621 9.16935,0.15836 12.67422,-0.73478 z M 588.232,243.52442 c 0.4218,-1.17194 0.538,-41.08985 0.1498,-51.44 -0.8124,-21.65843 -2.7372,-41.02319 -6.0909,-61.28 -1.5446,-9.32955 -5.0993,-28.35426 -7.0751,-37.866256 -1.6435,-7.91184 -6.7096,-28.94945 -7.2441,-30.082304 -0.9803,-2.077465 -2.6355,-2.785033 -11.0708,-4.732566 -15.8832,-3.66712 -31.1622,-6.191248 -56.9172,-9.40287 -23.5461,-2.936176 -80.4754,-9.276007 -83.295,-9.276007 -0.7038,0 -1.2098,0.178547 -1.32,0.465719 -0.2603,0.678262 0.4838,34.183225 0.8632,38.870949 0.8094,9.99817 3.6675,18.455605 8.5252,25.226185 0.9473,1.32031 3.6306,4.6498 5.9628,7.39886 5.557,6.55 23.1517,27.67756 24.4158,29.31829 1.4455,1.87605 2.8546,4.52726 3.6081,6.78829 0.3644,1.09356 1.5279,7.57356 2.5856,14.4 2.4925,16.08767 3.7229,22.80727 6.2863,34.33171 2.1217,9.538 2.4473,10.60938 3.519,11.57635 0.9152,0.82574 5.8891,1.64159 10.0328,1.64563 6.2457,0.006 9.8719,-1.31046 15.2,-5.5187 2.9499,-2.32987 8.1555,-5.78328 8.7177,-5.78328 0.1726,0 1.8098,1.33319 3.638,2.96265 17.2202,15.34719 37.3164,27.62809 59.8929,36.60087 5.9821,2.37749 17.8303,6.46604 18.8341,6.49921 0.2874,0.01 0.6392,-0.30673 0.7818,-0.70273 z"
       id="path48"
       clip-path="url(#clipPath99)"
       transform="matrix(0.38075842,0,0,0.38075842,204.66536,217.0171)" />
    <path
       style="fill:#ffffff;stroke-width:0.32"
       d="m 1192.6625,560.96542 c -4.3523,-0.81836 -5.9806,-1.1983 -6.32,-1.47468 -0.475,-0.38672 -0.55,-3.95687 -0.089,-4.2417 0.171,-0.1057 1.8343,0.10179 3.6962,0.46112 4.6645,0.90016 6.3656,0.86963 7.3674,-0.13216 1.8832,-1.88323 0.2221,-3.69456 -3.3881,-3.69456 -1.089,0 -1.5729,-0.14304 -1.7122,-0.50618 -0.1068,-0.2784 -0.1942,-1.98889 -0.1942,-3.80108 v -3.29495 l -2.16,-0.54195 c -6.7319,-1.68909 -11.5401,-7.89043 -12.5862,-16.23312 -1.0748,-8.57168 2.7291,-17.38192 8.9323,-20.68819 3.616,-1.92733 4.966,-2.11542 15.2539,-2.12547 l 9.28,-0.009 0.089,4.24 0.089,4.24 -6.0093,0.01 c -3.3051,0.005 -7.0535,0.1455 -8.3297,0.31126 -6.6395,0.8624 -8.941,4.01779 -8.6622,11.876 0.099,2.7935 0.2833,3.98237 0.7897,5.0991 0.9159,2.01956 2.4296,3.6466 4.2069,4.52202 1.4238,0.70125 1.9514,0.75046 9.666,0.90173 l 8.16,0.16 v 4.16 4.16 l -7.2,0.16 -7.2,0.16 -0.1022,1.24742 c -0.1151,1.40621 0.2398,1.77927 1.7022,1.78947 3.1198,0.0218 6.0062,2.22528 6.4058,4.8905 0.5197,3.46557 -0.7825,6.26458 -3.5342,7.59667 -1.1632,0.56307 -2.1712,0.74941 -4.4288,0.81869 -1.6076,0.0493 -3.2828,0.0221 -3.7228,-0.0608 z m -246.19921,-2.53088 c -0.2842,-0.7406 -0.24091,-6.6327 0.0521,-7.09363 0.17782,-0.27974 2.90743,-0.40877 10.1551,-0.48 9.34176,-0.0919 9.98553,-0.13609 11.1919,-0.76867 1.56169,-0.81894 2.41414,-2.19389 2.49736,-4.0281 l 0.0626,-1.3807 -7.36,-0.19856 c -4.88271,-0.13174 -7.9085,-0.35392 -8.98958,-0.66006 -5.23914,-1.48365 -9.72474,-6.83088 -11.14394,-13.28455 -0.66115,-3.00653 -0.6589,-8.72361 0.005,-11.71366 1.10672,-4.98736 4.64159,-10.12467 8.34997,-12.1352 3.42474,-1.85674 4.60466,-1.9913 17.53894,-2 l 11.84,-0.008 v 21.6 c 0,21.38397 -0.007,21.62243 -0.70624,23.84435 -1.29664,4.12064 -3.33091,6.38896 -7.08742,7.90278 -1.75145,0.70583 -2.17703,0.73098 -14.00547,0.82768 -11.05559,0.0904 -12.21796,0.0507 -12.4,-0.42371 z m 23.95913,-33.7511 v -11.36 h -5.28 c -5.15702,0 -5.32336,0.0224 -7.14166,0.91415 -2.2894,1.12284 -3.80316,3.06732 -4.56308,5.8614 -0.78089,2.8712 -0.52366,8.57943 0.49145,10.90573 1.6878,3.86787 4.90779,5.19818 12.33329,5.0953 l 4.16,-0.0576 v -11.36 z m -57.28,20.02755 c -8.4758,-1.94829 -13.76431,-7.93945 -14.91628,-16.89817 -0.93403,-7.26378 1.07432,-13.84688 5.60042,-18.35741 3.7481,-3.7352 8.55957,-5.57197 14.59586,-5.57197 13.26509,0 21.53572,9.66439 20.12804,23.52 -0.84744,8.34115 -5.26608,14.16173 -12.66313,16.68086 -2.09736,0.71428 -3.18175,0.87056 -6.66491,0.96055 -2.75962,0.0713 -4.80633,-0.0411 -6.08,-0.33386 z m 9.84592,-9.24723 c 3.1984,-1.87437 4.70612,-4.91229 4.9543,-9.98234 0.2895,-5.91436 -1.47046,-9.93433 -5.1785,-11.82838 -1.66364,-0.84976 -2.21739,-0.96745 -4.48,-0.95225 -4.17208,0.0282 -6.615,1.63763 -8.47287,5.58265 -0.76396,1.62221 -0.82885,2.09824 -0.82885,6.08 0,5.11283 0.46793,6.84912 2.45391,9.10531 2.13244,2.42256 3.79458,3.07578 7.49557,2.94573 2.13085,-0.0749 2.84928,-0.24326 4.05644,-0.95072 z m 353.12116,9.18522 c -7.0527,-1.51434 -12.231,-6.46608 -14.2127,-13.59114 -0.4316,-1.55174 -0.5684,-3.18963 -0.5589,-6.6944 0.011,-4.14566 0.1033,-4.91539 0.8651,-7.22509 2.9224,-8.86057 10.5324,-13.69699 20.6995,-13.15526 8.9012,0.47434 15.1535,4.99347 17.7923,12.86035 1.1577,3.45162 1.4384,9.4088 0.6199,13.15997 -1.6672,7.6408 -7.0452,13.11389 -14.4214,14.67638 -2.7919,0.59139 -7.9547,0.57664 -10.7838,-0.0307 z m 9.8393,-9.10301 c 1.8684,-0.96195 3.3379,-2.76432 4.3474,-5.33219 0.6134,-1.56023 0.7274,-2.45242 0.7274,-5.69034 0,-3.25875 -0.1128,-4.13062 -0.7456,-5.76 -1.8889,-4.86365 -6.7426,-7.25341 -11.7175,-5.76918 -4.2812,1.27728 -6.6473,5.43792 -6.6473,11.68918 0,6.02682 2.04,9.70816 6.3343,11.4312 0.5519,0.22144 2.0898,0.36029 3.5443,0.32 2.0341,-0.0564 2.9001,-0.24147 4.157,-0.88867 z m -572.96638,8.48032 c -6.39825,-1.38551 -11.22095,-6.13783 -12.97215,-12.78285 -0.79236,-3.00662 -0.96267,-8.77165 -0.3545,-12 1.01048,-5.36393 4.32061,-10.38294 8.2176,-12.46 3.23539,-1.72445 4.62937,-1.97789 12.14905,-2.20877 l 6.88,-0.21123 0.17577,-7.04 c 0.0967,-3.872 0.20468,-7.07974 0.24,-7.12832 0.0353,-0.0486 2.26023,-0.0486 4.94423,0 l 4.88,0.0883 v 27.04 27.04 l -11.04,0.0566 c -8.46745,0.0434 -11.52468,-0.0484 -13.12,-0.39379 z m 14.00409,-19.42285 -0.0841,-11.28 -4.8,0.0353 c -5.80956,0.0426 -7.63296,0.57424 -9.71404,2.83193 -1.82588,1.98087 -2.41676,4.15651 -2.39346,8.8128 0.0328,6.55414 1.79339,9.44122 6.42253,10.53181 0.66274,0.15616 3.33082,0.29837 5.92907,0.31603 l 4.72409,0.0322 z m 30.79591,19.44474 c -3.96266,-0.80026 -7.32454,-2.60058 -9.48337,-5.07847 -1.54382,-1.77197 -3.21279,-5.31651 -3.79297,-8.05545 -0.61733,-2.91431 -0.61855,-9.85539 -0.002,-12.79082 1.02921,-4.90211 4.08743,-9.20685 7.99859,-11.25881 3.79436,-1.99066 5.03962,-2.1632 15.68,-2.17268 l 9.6,-0.009 0.0893,4.04628 0.0893,4.0463 -8.72931,0.14573 c -9.83239,0.16416 -11.12714,0.40246 -12.5872,2.3167 -1.06655,1.39834 -1.75919,4.55603 -1.09193,4.97805 0.26513,0.16768 5.24907,0.29926 11.43938,0.30205 l 10.96956,0.005 -0.0896,4.08 -0.0896,4.08 -11.2,0.16 -11.2,0.16 0.0269,1.34998 c 0.034,1.71014 0.94941,3.76224 1.97916,4.43696 1.5692,1.02819 2.91807,1.18867 11.59397,1.37949 l 8.8,0.19357 v 4 4 l -8.96,0.0524 c -6.31608,0.037 -9.57377,-0.0716 -11.04,-0.36765 z m 55.82732,0.0753 c -0.0839,-0.22 -0.11541,-12.424 -0.07,-27.12 l 0.0826,-26.72 h 16 c 15.5526,0 16.07508,0.0202 18.68502,0.71597 3.38096,0.90157 4.93045,1.8095 7.10693,4.16438 3.12805,3.38445 4.43526,7.16759 4.44332,12.8592 0.0106,7.44813 -2.72538,12.55869 -8.20373,15.32413 -3.37436,1.70339 -5.60782,1.99533 -16.83154,2.2001 l -10.16,0.18534 v 8.88928 c 0,4.88909 -0.0874,9.11702 -0.19424,9.39542 -0.1662,0.43316 -0.95263,0.50618 -5.45004,0.50618 -3.90993,0 -5.29488,-0.10243 -5.4084,-0.4 z m 28.89943,-28.8879 c 3.04305,-0.90368 4.80083,-3.16413 5.10976,-6.57104 0.38367,-4.2312 -1.32822,-7.10259 -4.87651,-8.17952 -1.6328,-0.49559 -3.11667,-0.58416 -9.92,-0.59213 l -8,-0.009 -0.0856,7.92 -0.0856,7.92 h 8.10751 c 6.33325,0 8.46705,-0.10678 9.75042,-0.4879 z m 23.95061,28.78985 c -0.25586,-0.66672 -0.25887,-38.32931 -0.003,-38.99577 0.17098,-0.44557 1.31319,-0.50618 9.54123,-0.50618 11.40627,0 13.57757,0.32365 15.81567,2.35744 1.75657,1.59619 2.09507,2.85431 2.2783,8.46765 0.0938,2.87382 0.0554,5.42982 -0.0853,5.68 -0.20048,0.35638 -1.14775,0.45491 -4.37383,0.45491 -2.26486,0 -4.3457,-0.0874 -4.6241,-0.19424 -0.41507,-0.15926 -0.50702,-0.7784 -0.51089,-3.44 -0.005,-3.76454 -0.34419,-4.68505 -1.92362,-5.22771 -1.56402,-0.53734 -5.26021,-0.53021 -5.7094,0.0109 -0.2482,0.29904 -0.38129,5.17194 -0.43918,16.08 l -0.083,15.65107 -4.84264,0.0881 c -4.20522,0.0765 -4.86862,0.0205 -5.04,-0.42618 z m 122.83282,0.10643 c -0.0859,-0.2246 -0.11882,-9.19238 -0.0732,-19.92838 l 0.083,-19.52 h 10.4 c 11.1092,0 11.7233,0.0717 14.1884,1.65677 0.8534,0.5488 1.4864,1.34438 2.0739,2.60656 0.7828,1.6817 0.8544,2.20195 0.9642,7.0024 l 0.1187,5.18573 -0.7526,0.18675 c -0.4139,0.10272 -2.5526,0.14515 -4.7526,0.0943 l -4,-0.0925 -0.2246,-3.59225 c -0.1235,-1.97572 -0.378,-3.87885 -0.5655,-4.22912 -0.4608,-0.86106 -2.4551,-1.34727 -5.0577,-1.23306 l -2.1522,0.0944 -0.16,16 -0.16,16 -4.88682,0.0884 c -3.7334,0.0675 -4.92371,-0.008 -5.043,-0.32 z m 39.8759,-0.1167 c -2.2375,-0.60157 -3.5403,-1.4233 -5.143,-3.24416 -1.754,-1.99258 -2.4091,-4.21814 -2.3809,-8.08752 0.056,-7.60371 3.0859,-11.06541 10.6436,-12.15862 1.1738,-0.16979 5.6108,-0.31155 9.86,-0.31504 8.6861,-0.007 8.2968,0.11459 7.8187,-2.4448 -0.3667,-1.96288 -1.1703,-2.9961 -3.0811,-3.96154 -1.5711,-0.79376 -1.6657,-0.80125 -12.1434,-0.96 l -10.56,-0.16 v -4 -4 l 12.64,0.0125 c 11.9869,0.0118 12.7433,0.0473 14.6394,0.68627 5.544,1.86836 8.235,5.34704 9.0279,11.67085 0.3511,2.80051 0.4708,26.09824 0.1385,26.96426 -0.1734,0.45187 -1.7783,0.5039 -14.96,0.48512 -11.8729,-0.017 -15.1055,-0.11239 -16.4997,-0.48727 z m 20.9339,-11.65172 v -4 h -7.52 c -6.9999,0 -7.5975,0.0453 -8.64,0.65514 -1.9593,1.14608 -2.4948,4.40892 -1.0221,6.22764 0.8602,1.06224 2.2222,1.22154 9.9821,1.16743 l 7.2,-0.0502 z m 19.5102,11.76838 c -0.086,-0.2246 -0.1188,-9.19238 -0.073,-19.92838 l 0.083,-19.52 h 21.6 c 23.2529,0 23.2985,0.003 26.813,1.69933 2.0122,0.97136 4.0214,3.04794 4.8745,5.03824 1.1562,2.69728 1.2978,4.9536 1.2036,19.18243 l -0.091,13.76 h -4.96 -4.96 l -0.16,-13.97702 c -0.1546,-13.50135 -0.1826,-14.00778 -0.8228,-14.88 -1.267,-1.72631 -2.4007,-2.0409 -7.0172,-1.94733 l -4.16,0.0843 -0.16,15.36 -0.16,15.36 h -4.96 -4.96 l -0.16,-15.36 -0.16,-15.36 h -5.76 -5.76 l -0.16,15.36 -0.16,15.36 -4.8868,0.0884 c -3.7334,0.0675 -4.9237,-0.008 -5.043,-0.32 z m 69.8485,0.0458 c -3.1773,-0.75306 -5.7709,-2.85018 -7.0715,-5.71792 -0.9062,-1.99815 -1.1371,-7.81533 -0.4095,-10.31815 1.0442,-3.59197 3.2463,-5.73798 7.216,-7.03235 1.8861,-0.61494 3.0767,-0.70656 11.3864,-0.87625 l 9.28,-0.18951 -0.043,-1.66182 c -0.049,-1.91098 -0.8816,-3.50125 -2.2552,-4.30797 -1.6674,-0.9792 -4.5333,-1.23021 -14.0467,-1.23021 -8.2281,0 -9.3703,-0.0606 -9.5413,-0.50617 -0.2933,-0.76436 -0.2233,-6.95245 0.084,-7.43738 0.2174,-0.34288 2.6385,-0.40099 12.7152,-0.30515 11.593,0.11024 12.5829,0.16416 14.4351,0.7864 5.4376,1.82678 8.0646,4.9383 9.049,10.71792 0.2192,1.28675 0.3116,6.80496 0.2536,15.14438 l -0.091,13.12 -14.88,0.0494 c -8.184,0.0272 -15.4206,-0.0787 -16.0813,-0.23526 z m 20.4014,-11.81418 v -4 l -6.3955,-0.087 c -7.5257,-0.1024 -9.3763,0.17325 -10.5532,1.57191 -0.6686,0.79459 -0.8113,1.29766 -0.8113,2.85964 0,2.11661 0.5704,3.00608 2.1518,3.3553 0.4885,0.10787 1.0322,0.24557 1.2082,0.30598 0.176,0.0605 3.488,0.0838 7.36,0.052 l 7.04,-0.0579 z m 63.5831,11.66118 c -0.9332,-0.25116 -1.99,-0.61356 -2.3483,-0.80534 -1.3345,-0.71424 -3.2288,-2.70298 -3.9726,-4.17088 -2.3999,-4.73603 -1.347,-12.85395 2.028,-15.6359 3.1235,-2.57469 6.5231,-3.20906 17.1974,-3.20906 8.6469,0 8.3683,0.0771 7.956,-2.20294 -0.2699,-1.49312 -0.8359,-2.58877 -1.7732,-3.43274 -1.5569,-1.40182 -2.4881,-1.51907 -13.5504,-1.70592 l -10.56,-0.1784 -0.093,-3.36 c -0.051,-1.848 -0.012,-3.684 0.086,-4.08 l 0.1794,-0.72 11.2739,0.003 c 6.2006,0 12.1791,0.14931 13.2856,0.32887 5.9378,0.96358 9.5944,4.01718 11.1872,9.3423 0.4143,1.3848 0.5283,4.11149 0.6374,15.24662 0.073,7.45811 0.047,13.90211 -0.058,14.32 l -0.1907,0.75978 -14.7939,-0.0211 c -11.7566,-0.0166 -15.1423,-0.11482 -16.4907,-0.47776 z m 20.8969,-11.66118 v -4 h -7.36 c -7.9112,0 -8.9547,0.17162 -9.9102,1.62995 -0.8111,1.23776 -0.9319,3.32141 -0.2672,4.60439 0.8811,1.70057 1.9659,1.892 10.3374,1.82409 l 7.2,-0.0584 z m -19.8976,-33.47462 c -0.3085,-0.80384 0.7798,-3.81453 1.9121,-5.28979 2.2989,-2.99527 4.1519,-3.40221 9.4034,-2.06512 4.6658,1.18796 5.5522,1.1326 6.8755,-0.42938 1.0257,-1.21069 1.7973,-1.48826 3.7066,-1.3335 1.0326,0.0837 -0.2,4.18371 -1.8645,6.20169 -2.1375,2.59143 -4.5517,3.02071 -9.4178,1.67469 -4.4701,-1.23648 -5.7474,-1.07706 -7.0186,0.87603 -0.4821,0.74071 -0.7964,0.88 -1.986,0.88 -1.0032,0 -1.4705,-0.14928 -1.6107,-0.51462 z M 967.87566,479.72075 c -1.22471,-0.25385 -3.38471,-1.01785 -4.8,-1.69776 -6.42699,-3.08748 -10.16423,-8.9727 -10.6382,-16.75257 -0.56846,-9.33088 3.25287,-16.5577 10.62496,-20.0936 3.66273,-1.7568 5.3866,-2.09587 10.56,-2.07719 7.12573,0.0259 11.2047,1.5464 15.36438,5.72775 3.79706,3.81683 5.59562,8.59373 5.59562,14.86166 0,9.5664 -4.88131,16.72512 -13.25491,19.43911 -2.1504,0.69696 -3.31152,0.85603 -6.90509,0.94604 -2.91472,0.073 -5.04436,-0.042 -6.54676,-0.35344 z m 8.98266,-8.63011 c 2.23469,-0.66361 4.05348,-2.34003 5.31066,-4.89491 1.03933,-2.11216 1.05344,-2.20086 1.05344,-6.62656 0,-4.17123 -0.0588,-4.61107 -0.83834,-6.27341 -1.02428,-2.18416 -2.77737,-3.99229 -4.73305,-4.88163 -2.0789,-0.94538 -6.3241,-0.94179 -8.34861,0.007 -4.12837,1.93485 -5.94126,5.79085 -5.69894,12.12154 0.12458,3.25449 0.23482,3.79017 1.17167,5.69318 1.20738,2.45254 3.0596,4.18931 5.15747,4.83603 1.9262,0.59376 4.96161,0.60199 6.9257,0.0186 z m -255.40858,8.0728 c -0.0839,-0.22 -0.11541,-12.424 -0.07,-27.12 l 0.0826,-26.72 h 8.32 8.32 l 6.72643,20.13549 c 3.69953,11.0745 6.86829,20.18275 7.0417,20.24054 0.1734,0.0578 3.35008,-9.00316 7.0593,-20.13545 l 6.74403,-20.24058 h 8.29427 8.29427 v 27.04 27.04 l -5.36706,0.0878 c -4.11854,0.0674 -5.40314,-0.007 -5.52213,-0.32 -0.0853,-0.22429 0.05,-9.19178 0.30051,-19.92778 0.25056,-10.736 0.33602,-19.64429 0.18991,-19.79622 -0.14611,-0.15191 -3.26615,8.77609 -6.93344,19.84 l -6.66779,20.11622 -5.98499,0.087 c -5.45704,0.0793 -6.01062,0.037 -6.27555,-0.48 -0.1598,-0.31184 -3.1941,-9.27901 -6.74289,-19.92701 -3.54879,-10.648 -6.58497,-19.57184 -6.74706,-19.83072 -0.16209,-0.25891 -0.37221,-0.39325 -0.46692,-0.29853 -0.0947,0.0947 0.039,7.57853 0.29721,16.63072 0.25817,9.0522 0.47183,18.15053 0.4748,20.21853 l 0.005,3.76 h -5.61004 c -4.19332,0 -5.64858,-0.10102 -5.76264,-0.4 z m 78.41268,0.19248 c -4.61446,-0.96102 -7.32085,-3.1559 -8.59366,-6.96947 -0.77093,-2.30986 -0.70346,-6.90214 0.14159,-9.63811 0.5375,-1.74023 0.99242,-2.48698 2.32962,-3.82419 2.99381,-2.9938 6.34779,-3.66493 18.36245,-3.67437 l 8.08,-0.006 v -1.45027 c 0,-2.71232 -1.27395,-4.4969 -3.79703,-5.31904 -0.74997,-0.24438 -5.02673,-0.44496 -12.04297,-0.56483 l -10.88,-0.18586 v -4 -4 h 12.96 c 11.67047,0 13.15104,0.0585 14.88,0.58826 5.78969,1.77392 8.89514,5.38793 9.75849,11.35667 0.3341,2.30979 0.44677,26.55629 0.12727,27.3889 -0.17363,0.45248 -1.81115,0.50224 -15.44,0.46905 -8.38516,-0.0205 -15.53376,-0.0971 -15.88576,-0.1704 z m 20.256,-8.17648 c 0.44612,-0.44611 0.53484,-6.88259 0.10423,-7.56185 -0.21555,-0.34004 -1.81103,-0.40452 -7.9151,-0.32 -8.43864,0.11683 -9.22155,0.2838 -10.19971,2.17539 -1.23936,2.39664 -0.2197,5.22214 2.07964,5.76278 1.86583,0.43872 15.48405,0.39056 15.93094,-0.0563 z m 20.3741,7.99216 c -0.0858,-0.22448 -0.11873,-9.19216 -0.0731,-19.92816 l 0.083,-19.52 h 10.72 c 12.30471,0 13.54113,0.18583 15.71765,2.36237 1.81007,1.81005 2.23898,3.72397 2.13118,9.50989 l -0.0888,4.76774 -4.16,0.0923 c -5.96491,0.13235 -5.6,0.34797 -5.6,-3.3087 0,-3.98128 -0.4457,-5.10045 -2.22162,-5.57866 -0.72051,-0.19401 -2.3514,-0.31049 -3.6242,-0.25885 l -2.31418,0.0939 -0.16,16 -0.16,16 -5.04691,0.0882 c -3.86167,0.0675 -5.08357,-0.008 -5.20299,-0.32 z m 41.45766,-0.11958 c -5.88124,-1.58567 -8.73696,-6.55728 -7.755,-13.50093 0.77555,-5.4841 3.16034,-8.1776 8.45717,-9.5519 1.52746,-0.39632 4.27656,-0.56887 11.45007,-0.71866 l 9.44,-0.19709 -0.0427,-1.66182 c -0.0791,-3.08032 -1.68329,-4.61165 -5.48298,-5.23402 -1.00889,-0.16525 -6.17495,-0.30128 -11.48011,-0.3023 -8.49938,-0.003 -9.66885,-0.062 -9.84,-0.50803 -0.10684,-0.2784 -0.19424,-1.98877 -0.19424,-3.8008 0,-2.47588 0.11442,-3.38964 0.4604,-3.67677 0.75148,-0.62368 25.40576,-0.28384 27.6177,0.38067 4.11087,1.23501 6.84536,3.30925 8.36091,6.34214 1.57663,3.15511 1.65744,4.13671 1.56575,19.02093 l -0.0848,13.76 -15.36,0.0605 c -12.68063,0.0499 -15.66566,-0.0221 -17.11224,-0.41193 z m 21.59224,-11.64858 v -4 h -7.68 c -6.19946,0 -7.85952,0.0926 -8.61122,0.48 -1.40957,0.72656 -2.16241,1.95098 -2.18528,3.55411 -0.0546,3.8256 0.66961,4.08724 11.1165,4.01604 l 7.36,-0.0501 z m 31.54604,11.65517 c -3.47659,-0.9417 -5.97846,-3.33757 -7.12395,-6.82208 -0.6417,-1.952 -0.70867,-2.96694 -0.87837,-13.31309 l -0.18372,-11.2 -3.52,-0.16 -3.52,-0.16 -0.0935,-3.2 c -0.14398,-4.92502 -0.37614,-4.64 3.77965,-4.64 h 3.5139 v -6.69382 c 0,-3.6816 0.0874,-6.9216 0.19424,-7.2 0.16584,-0.43219 0.93764,-0.50618 5.28,-0.50618 h 5.08571 l 0.0133,1.2 c 0.007,0.66 0.006,3.72 -0.002,6.8 -0.009,3.08 0.0997,5.77629 0.2405,5.99175 0.18065,0.27651 1.80524,0.41772 5.52215,0.48 l 5.26631,0.0883 v 3.84 3.84 l -5.19297,0.0879 c -4.54229,0.0769 -5.22782,0.15705 -5.47116,0.64 -0.382,0.75811 -0.44813,11.20684 -0.10109,15.97302 0.45297,6.22093 1.37192,7.1671 7.23486,7.44922 l 3.53036,0.16985 v 3.84 3.84 l -5.92,0.0624 c -4.36908,0.0461 -6.37426,-0.0606 -7.65396,-0.40726 z m 66.04404,0.11299 c -0.086,-0.22448 -0.1187,-9.19216 -0.073,-19.92816 l 0.083,-19.52 10.72,-0.0918 c 6.3062,-0.054 11.7966,0.0483 13.3348,0.24858 6.628,0.86285 9.9371,3.29987 11.5192,8.48326 0.5313,1.74074 0.586,3.27936 0.586,16.48 v 14.56 h -5.12 -5.12 l -0.16,-13.6 c -0.178,-15.12937 -0.2161,-15.40451 -2.2948,-16.53875 -0.9206,-0.50234 -1.8689,-0.58125 -6.9852,-0.58125 h -5.92 l -0.16,15.36 -0.16,15.36 -5.0469,0.0882 c -3.8617,0.0675 -5.0835,-0.008 -5.203,-0.32 z m 51.8202,0.0636 c -3.3532,-0.66874 -6.0697,-2.7602 -7.4431,-5.73044 -0.67,-1.44931 -0.8473,-2.38985 -0.9511,-5.04627 -0.277,-7.09024 2.143,-10.66461 8.427,-12.44675 1.5439,-0.43786 3.7695,-0.57165 11.4369,-0.68762 l 9.52,-0.14396 v -1.41863 c 0,-2.68003 -1.2845,-4.4687 -3.797,-5.28739 -0.75,-0.24438 -5.0268,-0.44496 -12.043,-0.56483 l -10.88,-0.18586 v -4 -4 l 11.6751,-0.0841 c 13.1563,-0.0947 15.6401,0.14397 19.0708,1.83293 2.5525,1.2566 4.9636,3.83763 5.8847,6.29952 1.1246,3.00566 1.3183,6.04323 1.2215,19.15161 l -0.092,12.48 -15.36,0.0465 c -8.448,0.0256 -15.9493,-0.0711 -16.6697,-0.21472 z m 20.9257,-8.05575 c 0.4477,-0.44765 0.5342,-6.88365 0.1017,-7.56601 -0.2192,-0.34583 -1.7691,-0.40749 -7.9151,-0.31479 -6.5262,0.0985 -7.7937,0.19712 -8.6772,0.67546 -1.3149,0.71197 -2.0054,2.04637 -2.0054,3.87561 0,1.84519 0.9779,3.05844 2.7382,3.39725 2.2033,0.4241 15.3224,0.36787 15.7578,-0.0675 z m 49.8042,7.96784 c -0.088,-0.22886 -0.1193,-2.35286 -0.07,-4.72 l 0.09,-4.30384 16.0001,-0.18425 c 10.2362,-0.11789 16.3696,-0.31015 17.026,-0.53367 2.7797,-0.94656 3.8753,-2.26566 4.1582,-5.00633 0.2009,-1.94666 -0.2937,-3.82736 -1.3036,-4.957 -1.5037,-1.68179 -2.0725,-1.7608 -14.2806,-1.98345 -12.1061,-0.22077 -13.1427,-0.34595 -16.8385,-2.03363 -3.2345,-1.47703 -5.5729,-4.50842 -6.5582,-8.50167 -0.56,-2.26963 -0.559,-8.29664 0,-10.56 1.4088,-5.68601 4.4855,-8.72093 10.5948,-10.45097 1.9068,-0.53997 3.5591,-0.58903 19.8401,-0.58903 h 17.76 l 0.089,4.72 0.089,4.72 -14.3286,0.003 c -8.4601,0 -15.1804,0.14 -16.4086,0.3384 -4.1219,0.66583 -6.08,2.74605 -6.08,6.45936 0,2.14906 0.3902,3.29523 1.5274,4.48733 1.5663,1.64176 3.0196,1.83136 14.1308,1.84365 11.2432,0.0125 13.7712,0.28454 17.0956,1.84019 4.6776,2.1889 6.6116,6.12778 6.6015,13.44438 -0.01,5.80007 -1.2038,9.27255 -4.1383,12.01748 -2.0818,1.94723 -4.9692,3.26265 -8.5216,3.88214 -3.8143,0.66515 -36.2228,0.72602 -36.4752,0.0685 z m 57.7799,-26.8033 v -27.21943 l 17.84,0.11645 c 15.5716,0.10166 18.0746,0.18518 19.6853,0.6568 5.2762,1.5448 8.5396,4.69622 9.8316,9.49411 0.2099,0.77975 0.3758,2.66835 0.3685,4.19687 -0.023,4.84444 -1.7992,8.57648 -5.2611,11.05449 -0.9154,0.6552 -1.7863,1.29543 -1.9353,1.42272 -0.1491,0.1273 0.5911,0.81693 1.6448,1.53248 2.4427,1.65885 4.0331,3.5224 4.9323,5.77959 1.0026,2.51654 1.0178,8.58998 0.028,11.2791 -1.7793,4.83514 -5.1197,7.33443 -11.2943,8.45024 -1.8135,0.32771 -6.4861,0.43645 -19.12,0.44486 l -16.72,0.0112 z m 31.0336,17.27094 c 3.0313,-0.65011 4.4864,-2.60266 4.4864,-6.02038 0,-2.25815 -0.3768,-3.39252 -1.5275,-4.59863 -1.5451,-1.61958 -3.0846,-1.83248 -13.2506,-1.83248 h -9.2219 v 6.18666 c 0,3.40269 0.096,6.28269 0.2133,6.4 0.3617,0.36173 17.5444,0.24137 19.3003,-0.13517 z m 1.3399,-22.9472 c 1.687,-0.83107 2.336,-1.6577 2.8706,-3.65648 0.7971,-2.98029 -0.3983,-5.93667 -2.9145,-7.20781 -1.3846,-0.69945 -1.7019,-0.72 -11.1174,-0.72 h -9.6922 v 6.02666 c 0,3.31469 0.1069,6.13366 0.2377,6.26438 0.1307,0.13075 4.4867,0.19075 9.68,0.13335 9.0967,-0.10058 9.4969,-0.1313 10.9358,-0.8401 z m 39.1465,32.42915 c -7.357,-1.16989 -13.3608,-6.08473 -15.9983,-13.09651 -1.5593,-4.1455 -1.8743,-6.28963 -1.8857,-12.83693 -0.015,-8.86793 1.2303,-14.20595 4.4429,-19.0384 1.9348,-2.9103 3.8405,-4.52336 7.3611,-6.23049 4.944,-2.39741 5.6678,-2.49348 19.9289,-2.64432 l 12.5689,-0.13296 -0.089,4.5831 -0.089,4.58307 -11.04,0.17031 c -10.675,0.16467 -11.1034,0.19548 -12.959,0.93257 -2.5497,1.01274 -4.9669,3.46323 -5.9206,6.00215 -1.2514,3.33152 -1.6863,6.34512 -1.7223,11.93497 -0.062,9.68035 1.6729,13.64711 6.903,15.77994 1.603,0.65369 2.3495,0.70205 13.2189,0.85645 l 11.52,0.16361 v 4.64 4.64 l -11.84,0.0503 c -8.2545,0.035 -12.6152,-0.073 -14.4,-0.35683 z m -289.14675,-79.3392 c -0.0733,-0.0692 -5.17333,-0.28864 -11.33333,-0.48774 -29.97939,-0.96902 -34.4686,-1.2256 -56.8,-3.24634 -21.73179,-1.96649 -46.49325,-4.60358 -66.08,-7.03753 -24.93745,-3.09885 -48.59974,-7.55651 -75.80432,-14.28058 -12.78301,-3.15952 -12.87363,-3.20179 -13.80438,-6.43977 -0.28809,-1.00224 -1.81411,-6.14228 -3.39115,-11.42228 -4.94023,-16.54009 -6.69773,-23.72992 -9.0832,-37.15888 -4.09861,-23.07295 -6.45174,-47.4218 -7.51115,-77.72111 -0.41445,-11.85327 -0.41717,-46.66959 -0.005,-57.92 1.60971,-43.88736 6.73171,-88.752159 13.75707,-120.501349 2.36163,-10.672772 5.91218,-23.987875 6.92592,-25.973235 0.24561,-0.481021 0.87823,-1.097808 1.40582,-1.370637 1.12372,-0.581101 14.6678,-3.74105 28.68227,-6.691818 52.6379,-11.082998 110.78356,-18.367367 167.46762,-20.980003 32.93235,-1.517891 72.73578,-1.636444 105.11998,-0.313096 44.2311,1.807459 81.5244,5.440064 136.4801,13.294015 17.9535,2.565821 25.7501,3.83863 46.72,7.6271 7.304,1.319565 15.512,2.77408 18.24,3.232256 12.5045,2.10018 14.4248,3.364832 16.7583,11.036765 1.8523,6.09007 6.8742,27.905723 9.613,41.760003 8.4765,42.878719 11.7896,77.059789 11.8173,121.919999 0.016,26.45491 -1.1095,42.38251 -5.3837,76.16 -5.7209,45.2103 -8.7304,60.7911 -15.3556,79.49779 -2.917,8.23651 -3.1594,8.46217 -11.3693,10.58179 -21.3942,5.52355 -38.9978,8.61683 -68.16,11.97686 -49.7349,5.7304 -76.8363,8.10192 -140.9601,12.33475 -31.7332,2.09476 -35.4863,2.24096 -57.62664,2.24506 -11.10267,0.003 -20.24667,-0.0528 -20.32001,-0.12202 z m 43.86665,-21.45545 c 21.9651,-3.7344 39.1278,-17.29773 54.4854,-43.05879 4.8741,-8.1758 10.5463,-20.20752 17.349,-36.8 4.5856,-11.1845 5.7989,-13.69996 7.8003,-16.17188 0.8603,-1.06254 4.4264,-4.39002 7.9247,-7.39439 8.5711,-7.36092 10.5709,-9.58871 13.4267,-14.95784 3.0521,-5.73805 4.3877,-11.87246 4.3971,-20.19588 0,-4.93455 -0.06,-5.5883 -0.7041,-7.03602 -1.3291,-2.98625 -2.5131,-3.82905 -8.776,-6.24679 -4.7589,-1.8371 -5.9831,-2.75465 -5.9831,-4.48432 0,-0.50491 0.1467,-2.68986 0.3261,-4.85544 0.1793,-2.16559 0.5988,-8.25743 0.9323,-13.53743 0.5534,-8.76351 0.568,-10.25526 0.1674,-17.12 -0.9772,-16.7467 -2.2665,-24.68229 -5.5898,-34.40679 -7.8278,-22.90433 -26.9499,-40.38727 -54.076,-49.44031 -17.6514,-5.890979 -35.9719,-7.806329 -56.3076,-5.886799 -24.02367,2.26766 -45.40855,9.294879 -61.78511,20.303029 -10.04332,6.75101 -18.18008,16.14471 -22.85985,26.39115 -4.67071,10.22662 -7.35842,23.77758 -7.74318,39.03972 -0.25607,10.15758 0.20753,17.36365 1.99692,31.04 0.85296,6.5192 0.095,8.725 -4.09771,11.92432 -5.941,4.53343 -8.4131,8.26296 -9.21231,13.89815 -0.44778,3.15723 0.0865,6.95711 1.6285,11.58259 3.0824,9.2461 8.33691,17.55638 18.83904,29.79494 1.81235,2.112 3.75998,4.55999 4.32807,5.43999 0.56809,0.88 5.03348,9.304 9.92308,18.72 10.51053,20.24032 12.86701,24.64279 16.27205,30.4 5.55235,9.38788 12.36984,18.53239 18.12503,24.31168 10.60219,10.6466 24.55724,17.28826 40.33309,19.19584 3.61638,0.43728 15.30228,0.15952 18.87998,-0.44873 z M 781.17664,278.7999 c 6.46494,-1.64744 11.27454,-4.70114 16.33068,-10.36861 2.42896,-2.72264 7.8529,-10.82267 10.8665,-16.22784 7.2212,-12.95191 14.4603,-31.97476 18.04058,-47.40693 1.69752,-7.31685 0.87787,-6.51288 6.64116,-6.51417 11.47991,-0.003 19.72614,-1.50474 22.28912,-4.0603 1.06033,-1.05726 1.07896,-1.1227 0.91917,-3.22887 -0.37972,-5.00496 -4.72142,-18.19851 -12.39627,-37.66973 -8.24815,-20.92572 -8.78491,-22.67562 -8.78491,-28.64 0,-4.66988 0.61848,-7.4041 3.04015,-13.44 2.14764,-5.35292 5.1666,-14.783119 6.14665,-19.199999 0.92674,-4.17662 0.99624,-13.55733 0.13039,-17.6 -0.82619,-3.85748 -1.92892,-7.03137 -3.72454,-10.72 -1.87556,-3.852835 -3.86257,-6.848819 -8.5092,-12.830006 -1.92703,-2.480503 -4.2237,-5.502378 -5.1037,-6.71528 -2.04478,-2.818317 -3.65877,-3.771015 -6.38074,-3.766384 -1.08634,0.0019 -6.72446,0.948323 -12.81926,2.151981 -5.984,1.181779 -15.704,3.080595 -21.6,4.219593 -5.896,1.138999 -11.584,2.373069 -12.64,2.742381 -7.94907,2.779997 -12.13074,9.320467 -16.03352,25.077715 -6.25956,25.27261 -9.92564,56.847739 -12.48377,107.519999 -0.6482,12.83987 -0.98075,58.61337 -0.48715,67.05326 0.44075,7.53611 1.8835,22.22693 2.31483,23.57074 0.39578,1.23303 2.0773,2.77875 3.54216,3.25608 1.65511,0.53932 15.16198,3.185 18.02745,3.53115 3.85925,0.46621 9.16935,0.15836 12.67422,-0.73478 z M 1258.127,234.36345 c 0.4218,-1.17194 0.538,-41.08985 0.1498,-51.44 -0.8124,-21.65843 -2.7372,-41.02319 -6.0909,-61.28 -1.5446,-9.32955 -5.0993,-28.354259 -7.0751,-37.866259 -1.6435,-7.91184 -6.7096,-28.949446 -7.2441,-30.0823 -0.9803,-2.077465 -2.6355,-2.785033 -11.0708,-4.732566 -15.8832,-3.66712 -31.1622,-6.191248 -56.9172,-9.40287 -23.5461,-2.936176 -80.4754,-9.276007 -83.295,-9.276007 -0.7038,0 -1.2099,0.178547 -1.3201,0.465719 -0.2603,0.678262 0.4838,34.183224 0.8633,38.870954 0.8093,9.99817 3.6675,18.4556 8.5251,25.22618 0.9473,1.32031 3.6306,4.6498 5.9629,7.398859 5.557,6.55 23.1517,27.67756 24.4158,29.31829 1.4454,1.87605 2.8545,4.52726 3.608,6.78829 0.3645,1.09356 1.528,7.57356 2.5856,14.4 2.4925,16.08767 3.7229,22.80727 6.2864,34.33171 2.1216,9.538 2.4473,10.60938 3.519,11.57635 0.9152,0.82574 5.8891,1.64159 10.0328,1.64563 6.2457,0.006 9.8719,-1.31046 15.2,-5.5187 2.9499,-2.32987 8.1555,-5.78328 8.7177,-5.78328 0.1726,0 1.8098,1.33319 3.638,2.96265 17.2202,15.34719 37.3164,27.62809 59.8929,36.60087 5.9821,2.37749 17.8303,6.46604 18.8341,6.49921 0.2874,0.01 0.6392,-0.30673 0.7818,-0.70273 z"
       id="path48-6"
       clip-path="url(#clipPath130)"
       transform="translate(-222.8326,-187.51091)" />
    <text
       xml:space="preserve"
       style="font-weight:bold;font-size:75.765px;line-height:0;font-family:'Edo SZ';-inkscape-font-specification:'Edo SZ Bold';letter-spacing:0px;word-spacing:0px;stroke-width:1.42059"
       x="1328.949"
       y="274.9791"
       id="text183"
       transform="scale(0.99268528,1.0073686)"><tspan
         sodipodi:role="line"
         id="tspan181"
         x="1328.949"
         y="274.9791"
         style="font-style:normal;font-variant:normal;font-weight:bold;font-stretch:normal;line-height:0.9;font-family:Raleway;-inkscape-font-specification:'Raleway Bold';text-align:center;text-anchor:middle;fill:#ffffff;stroke-width:1.42059" /><tspan
         sodipodi:role="line"
         x="1328.949"
         y="354.172"
         id="tspan185"
         style="font-style:normal;font-variant:normal;font-weight:bold;font-stretch:normal;font-size:90.4242px;line-height:0.9;font-family:Raleway;-inkscape-font-specification:'Raleway Bold';text-align:center;text-anchor:middle;fill:#ffffff;stroke-width:1.42059">2020-21</tspan></text>
    <text
       xml:space="preserve"
       style="font-weight:bold;font-size:312.347px;line-height:1.25;font-family:'Edo SZ';-inkscape-font-specification:'Edo SZ Bold';letter-spacing:0px;word-spacing:0px;stroke-width:5.85651"
       x="1403.1107"
       y="273.15286"
       id="text323"
       transform="scale(0.93944955,1.0644531)"><tspan
         sodipodi:role="line"
         id="tspan321"
         x="1403.1107"
         y="273.15286"
         style="font-style:normal;font-variant:normal;font-weight:bold;font-stretch:normal;font-size:70.278px;line-height:0.9;font-family:'Ubuntu Condensed';-inkscape-font-specification:'Ubuntu Condensed, ';font-variant-ligatures:normal;font-variant-position:normal;font-variant-caps:normal;font-variant-numeric:normal;font-variant-alternates:normal;font-variant-east-asian:normal;font-feature-settings:normal;text-indent:0;text-align:center;text-decoration:none;text-decoration-line:none;text-decoration-style:solid;text-decoration-color:#000000;letter-spacing:0px;word-spacing:0px;text-transform:none;writing-mode:lr-tb;direction:ltr;text-orientation:mixed;dominant-baseline:auto;baseline-shift:baseline;text-anchor:middle;white-space:normal;shape-padding:0;shape-margin:0;inline-size:0;opacity:1;vector-effect:none;fill:#ffffff;fill-opacity:1;stroke-width:7.58623;stroke-linecap:butt;stroke-linejoin:miter;stroke-miterlimit:4;stroke-dasharray:none;stroke-dashoffset:0;stroke-opacity:1;stop-color:#000000;stop-opacity:1">Primeira Fase</tspan></text>
  </g>
</svg>
