<?xml version="1.0" encoding="UTF-8" standalone="no"?>
<!-- Created with Inkscape (http://www.inkscape.org/) -->

<svg
   version="1.1"
   id="svg870"
   width="85.954796"
   height="111.45493"
   viewBox="0 0 85.954795 111.45494"
   sodipodi:docname="balao2.png"
   inkscape:version="1.1.1 (3bf5ae0d25, 2021-09-20)"
   xmlns:inkscape="http://www.inkscape.org/namespaces/inkscape"
   xmlns:sodipodi="http://sodipodi.sourceforge.net/DTD/sodipodi-0.dtd"
   xmlns="http://www.w3.org/2000/svg"
   xmlns:svg="http://www.w3.org/2000/svg">
  <defs
     id="defs874" />
  <sodipodi:namedview
     id="namedview872"
     pagecolor="#505050"
     bordercolor="#ffffff"
     borderopacity="1"
     inkscape:pageshadow="0"
     inkscape:pageopacity="0"
     inkscape:pagecheckerboard="1"
     showgrid="false"
     inkscape:zoom="4.9186512"
     inkscape:cx="45.947556"
     inkscape:cy="44.524402"
     inkscape:window-width="1870"
     inkscape:window-height="1056"
     inkscape:window-x="0"
     inkscape:window-y="0"
     inkscape:window-maximized="1"
     inkscape:current-layer="layer1" />
  <g
     inkscape:groupmode="layer"
     id="layer1"
     inkscape:label="Image 1"
     style="display:inline"
     transform="translate(30.980143,5.2072676)">
    <path
       style="fill:#000000;stroke:#000000;stroke-width:1px;stroke-linecap:butt;stroke-linejoin:miter;stroke-opacity:1"
       d="M -28.845651,53.510854 C -32.583579,39.464674 -31.950156,6.0337222 -4.247161,-2.1820098 23.455833,-10.397742 41.931533,2.8094795 50.63309,16.965622 59.334647,31.121764 52.199151,55.855548 39.675906,68.178575 27.152661,80.501603 12.285609,85.293663 5.096366,86.406427 c 0,0 -1.51556,2.947914 -4.67131299,2.744084 0.93790099,7.426299 0.156328,4.35588 1.63451899,9.049259 -3.226266,0.4496 -2.76359699,0.18717 -6.216176,0.10343 -1.341009,5.22363 -4.521935,7.99311 -8.557152,7.35597 -4.035217,-0.63715 -5.154409,-3.03357 -6.129017,-5.56985 -0.974608,-2.53628 -0.772535,-6.385411 -4.121771,-6.978644 -3.349236,-0.593233 -4.272059,4.251024 -5.933944,3.717524 -0.974341,-0.38351 -2.019536,-1.32295 -0.668129,-2.943368 1.351407,-1.620414 4.271713,-4.156838 6.832717,-3.797423 2.561004,0.359415 3.971428,1.772053 5.270826,4.251903 1.299399,2.479848 0.851217,6.214238 3.795076,7.398218 2.94386,1.18399 6.021671,1.08482 6.204333,-3.85132 l -3.105621,-1.21564 c 0,0 4.846943,-6.200045 5.740105,-8.594245 -2.130167,-1.559693 -2.225166,-3.735396 -2.225166,-3.735396 0,0 -18.053376,-16.783895 -21.791304,-30.830075 z"
       id="path993"
       sodipodi:nodetypes="zzzzcccczzzczzzzccccz" />
  </g>
</svg>
