<?xml version="1.0" encoding="utf-8"?>
<svg xmlns="http://www.w3.org/2000/svg" xmlns:xlink="http://www.w3.org/1999/xlink" style="margin: auto; background: rgba(0, 0, 0, 0) none repeat scroll 0% 0%; display: block; shape-rendering: auto;" width="200px" height="200px" viewBox="0 0 100 100" preserveAspectRatio="xMidYMid">
<g transform="translate(50 50)">
<g>
<animateTransform attributeName="transform" type="rotate" values="0;45" keyTimes="0;1" dur="0.3717472118959108s" repeatCount="indefinite"></animateTransform><path d="M30.079062485390065 -7.5 L38.07906248539007 -7.5 L38.07906248539007 7.5 L30.079062485390065 7.5 A31 31 0 0 1 26.57240991405231 15.965808196254097 L26.57240991405231 15.965808196254097 L32.22926416354469 21.622662445746478 L21.622662445746478 32.22926416354469 L15.965808196254097 26.57240991405231 A31 31 0 0 1 7.500000000000005 30.07906248539006 L7.500000000000005 30.07906248539006 L7.500000000000006 38.07906248539006 L-7.500000000000001 38.07906248539007 L-7.500000000000002 30.079062485390065 A31 31 0 0 1 -15.965808196254093 26.572409914052315 L-15.965808196254093 26.572409914052315 L-21.62266244574647 32.2292641635447 L-32.22926416354469 21.622662445746478 L-26.57240991405231 15.965808196254097 A31 31 0 0 1 -30.07906248539006 7.500000000000008 L-30.07906248539006 7.500000000000008 L-38.07906248539006 7.500000000000009 L-38.07906248539007 -7.499999999999999 L-30.079062485390065 -7.5 A31 31 0 0 1 -26.572409914052315 -15.96580819625409 L-26.572409914052315 -15.96580819625409 L-32.2292641635447 -21.622662445746467 L-21.622662445746492 -32.22926416354468 L-15.965808196254109 -26.5724099140523 A31 31 0 0 1 -7.499999999999996 -30.079062485390065 L-7.499999999999996 -30.079062485390065 L-7.499999999999997 -38.07906248539007 L7.499999999999983 -38.07906248539007 L7.499999999999985 -30.079062485390068 A31 31 0 0 1 15.9658081962541 -26.572409914052308 L15.9658081962541 -26.572409914052308 L21.622662445746478 -32.22926416354469 L32.22926416354468 -21.622662445746492 L26.5724099140523 -15.965808196254109 A31 31 0 0 1 30.079062485390065 -7.499999999999997 M0 -20A20 20 0 1 0 0 20 A20 20 0 1 0 0 -20" fill="#e4812f"></path></g></g>
<!-- [ldio] generated by https://loading.io/ --></svg>